SplineFontDB: 3.0
FontName: AdlamCWC
FullName: AdlamCWC
FamilyName: AdlamCWC
Weight: Regular
Copyright: Copyright (c) 2016, Craig Cornelius
UComments: "2016-12-21: Created with FontForge (http://fontforge.org)"
FontLog: "Adlam font, based on shapes from Unicode proposal http://www.unicode.org/L2/L2014/14219r-n4628-adlam.pdf.+AAoACgAA-Craig Cornelius+AAoA"
Version: 001.000
ItalicAngle: 0
UnderlinePosition: -100
UnderlineWidth: 50
Ascent: 800
Descent: 200
InvalidEm: 0
LayerCount: 2
Layer: 0 0 "Back" 1
Layer: 1 0 "Fore" 0
XUID: [1021 542 1552056636 9137163]
FSType: 0
OS2Version: 0
OS2_WeightWidthSlopeOnly: 0
OS2_UseTypoMetrics: 1
CreationTime: 1482387637
ModificationTime: 1484462877
PfmFamily: 17
TTFWeight: 400
TTFWidth: 5
LineGap: 90
VLineGap: 90
OS2TypoAscent: 0
OS2TypoAOffset: 1
OS2TypoDescent: 0
OS2TypoDOffset: 1
OS2TypoLinegap: 90
OS2WinAscent: 0
OS2WinAOffset: 1
OS2WinDescent: 0
OS2WinDOffset: 1
HheadAscent: 0
HheadAOffset: 1
HheadDescent: 0
HheadDOffset: 1
OS2CapHeight: 0
OS2XHeight: 0
OS2Vendor: 'PfEd'
MarkAttachClasses: 1
DEI: 91125
LangName: 1033
Encoding: Custom
UnicodeInterp: none
NameList: AGL For New Fonts
DisplaySize: -48
AntiAlias: 1
FitToEm: 1
WinInfo: 0 16 12
BeginPrivate: 0
EndPrivate
TeXData: 1 0 0 346030 173015 115343 0 1048576 115343 783286 444596 497025 792723 393216 433062 380633 303038 157286 324010 404750 52429 2506097 1059062 262144
BeginChars: 145 89

StartChar: ADLAM_CAPITAL_LETTER_ALIF
Encoding: 0 125184 0
Width: 1000
VWidth: 0
GlyphClass: 2
Flags: HW
HStem: -19 468<422 643> 655 67<198.126 222.855>
VStem: 240 68<133.162 365.609> 626 78<129.03 312.571>
LayerCount: 2
Back
Fore
SplineSet
467 -19 m 0
 377 -19 251 55 240 137 c 0
 238 152 227 655 220 655 c 1
 213 660 178 679 178 688 c 1
 178 688 228 722 255 722 c 0
 272 722 283 689 296 689 c 0
 308 689 308 390 308 213 c 0
 308 109.281750282 398.893749421 45.5796166612 483.49216991 45.5796166612 c 0
 557.131028005 45.5796166612 626 93.8458669179 626 206 c 0
 626 212 626 219 626 225 c 0
 619 368 516 408 433 408 c 0
 400 408 370 402 350 393 c 9
 440 469 l 17
 505 462 571 449 631 449 c 0
 655 449 680 454 708 465 c 9
 636 393 l 17
 636 393 636 392 636 392 c 0
 636 381 702 387 704 241 c 0
 704 240 704 239 704 238 c 0
 704 89 611 -19 467 -19 c 0
EndSplineSet
Validated: 524289
Comment: "Adlam script letter alif."
EndChar

StartChar: ADLAM_CAPITAL_LETTER_DAALI
Encoding: 1 125185 1
Width: 0
VWidth: 0
GlyphClass: 2
Flags: HW
HStem: -3 70<209.922 471.308>
VStem: 122 80<572.173 646> 123 68<390.12 644.874> 478 84<432.375 648> 494 101<30.1875 96.5752> 494 84<68.5398 111.15>
LayerCount: 2
Back
Fore
SplineSet
144 14 m 1x88
 154 30 176 72 212 80 c 1
 316 75 397 67 445 67 c 0
 477 67 494 71 494 82 c 0
 494 102 433 149 294 244 c 0
 206 305 145 304 130 362 c 0
 123.75 385.75 122.578125 437.234375 122.578125 487.64453125 c 0
 122.578125 517.890625 123 547.75 123 571 c 0xa8
 123 596 123 622 122 646 c 9
 104 660 l 25
 202 722 l 17xc0
 202 642 191 584 191 519 c 0xa0
 191 487 194 453 202 414 c 8
 218 344 342 298 394 258 c 0
 424 234 460 200 476 200 c 0
 481 200 484 204 484 214 c 2
 478 648 l 25
 464 658 l 25
 562 722 l 25xd0
 578 60 l 17x84
 591 54 595 48 595 42 c 0
 595 28 563 14 550 0 c 9
 508 0 l 25
 500 38 l 25
 462 0 l 18
 460 -2 451 -3 438 -3 c 0
 429.1 -3 419.86 -3.01 410.355 -3.01 c 0
 324.81 -3.01 217.8 -2.2 144 14 c 1x88
EndSplineSet
Validated: 524289
EndChar

StartChar: glyph35
Encoding: -1 52 2
Width: 1000
VWidth: 0
LayerCount: 2
Back
SplineSet
432 0 m 0
 568 0 697.991515935 109.862133939 706 240 c 0
 714 370 592 351 640 398 c 26
 714 470 l 25
 673 464 651.00702772 454.650905202 610 454 c 0
 547 453 462.626448737 475.134026746 450 466 c 10
 356 398 l 17
 428 406 471 428 526 392 c 24
 590 350 633 298 626 222 c 24
 618 135 581 44 494 42 c 24
 396 40 338 120 310 214 c 24
 257 392 314 504 302 690 c 0
 300.442800441 714.136593163 272 720 248 718 c 24
 218 716 207 696 180 682 c 25
 222 656 l 18
 225.373770492 653.91147541 228 310 246 122 c 1028
EndSplineSet
Fore
Validated: 1
EndChar

StartChar: ADLAM_CAPITAL_LETTER_LAAM
Encoding: 2 125186 4
Width: 1000
VWidth: 0
GlyphClass: 2
Flags: HO
HStem: 710.222 45.7607<253.025 455.698>
LayerCount: 2
Back
Fore
SplineSet
88 20 m 17
 88 20 127.900336485 93.1506168883 153.069536081 93.1506168883 c 0
 153.723281525 93.1506168883 154.366129908 93.0950805138 155 93 c 0
 414.691170893 54.0463243661 548 -11.2083635274 548 209 c 0
 548 272.253012048 552.536217158 343.036144578 552.536217158 411.019939243 c 0
 552.536217158 567.975568203 528.357301293 710.010184264 368.35471758 710.010184264 c 0
 367.573057642 710.010184264 366.788156121 710.006794449 366 710 c 0
 201.253913742 709.039381421 168.466519187 595.950626049 168.466519187 539.849159763 c 4
 168.466519187 482.916502268 182.801883172 424.666621855 182.801883172 387.972032234 c 0
 182.801883172 364.62186451 176.997117895 350 158 350 c 0
 122 350 109 415 109 457 c 0
 109 611 213 756 320 756 c 0
 528 756 593 715 612 531 c 0
 615.298304354 503.953904299 625.559048138 345.491764349 625.559048138 223.539616493 c 0
 625.559048138 160.62079009 622.827799973 107.420347755 615 87 c 9
 615 87 580 5 552 5 c 1
 548.03960396 -1.18811881188 531.886775806 -3.51632192922 508.455128162 -3.51632192922 c 0
 437.222919322 -3.51632192922 298.722772277 18 231 18 c 0
 179 18 134 4 103 -2 c 25
 88 20 l 17
EndSplineSet
EndChar

StartChar: ADLAM_CAPITAL_LETTER_MIIM
Encoding: 3 125187 5
Width: 1000
VWidth: 0
GlyphClass: 2
HStem: -14.2842 85.5957<153.207 446.014> -4.91113 54.0371<363.932 649.827> 205.044 71.2344<298.843 484.105> 688.691 60.6064<308.38 506.508>
VStem: 108.378 68.7324<368.819 555.608> 662.695 56.7236<63.5078 277.299>
LayerCount: 2
Back
Fore
SplineSet
455.688476562 276.278320312 m 4x3c
 527.260742188 276.278320312 562.080078125 306.272460938 598.833007812 357.82421875 c 4
 619.046875 386.411132812 631.853515625 444.600585938 631.853515625 497.600585938 c 4
 631.853515625 538.438476562 624.249023438 576.197265625 606.571289062 594.9609375 c 4
 565.948242188 638.076171875 509.8515625 688.69140625 384.115234375 688.69140625 c 4
 300.936523438 688.69140625 225.495117188 660.571289062 196.478515625 578.08984375 c 4
 184.478515625 544.366210938 177.110351562 503.428710938 177.110351562 463.962890625 c 4
 177.110351562 407.998046875 191.927734375 354.990234375 229.36328125 329.705078125 c 4
 293.198242188 286.588867188 384.115234375 276.278320312 455.688476562 276.278320312 c 4x3c
100.725585938 -14.2841796875 m 6xbc
 100.501953125 -14.291015625 100.283203125 -14.2939453125 100.068359375 -14.2939453125 c 4
 94.1474609375 -14.2939453125 91.666015625 -11.880859375 91.666015625 -7.87890625 c 4
 91.666015625 9.30078125 137.372070312 55.7529296875 152.955078125 66.3232421875 c 4
 158.166992188 69.8896484375 173.586914062 71.3115234375 195.946289062 71.3115234375 c 4xbc
 284.248046875 71.3115234375 480.782226562 49.1259765625 584.369140625 49.1259765625 c 4
 620.030273438 49.1259765625 644.67578125 51.7548828125 650.094726562 58.8251953125 c 4
 659.232421875 70.6318359375 662.6953125 92.66796875 662.6953125 119.28515625 c 4
 662.6953125 202.548828125 628.81640625 330.642578125 628.81640625 330.642578125 c 6
 628.487304688 335.52734375 626.694335938 337.693359375 623.650390625 337.693359375 c 4
 599.831054688 337.693359375 499.459960938 205.043945312 425.705078125 205.043945312 c 4
 280.625 205.043945312 112.33203125 270.655273438 108.462890625 441.244140625 c 4
 108.40625 443.884765625 108.377929688 446.502929688 108.377929688 449.09765625 c 4
 108.377929688 534.859375 139.466796875 594.95703125 205.18359375 656.822265625 c 4
 268.797851562 716.734375 329.921875 749.297851562 414.69921875 749.297851562 c 4
 421.438476562 749.297851562 428.326171875 749.091796875 435.376953125 748.677734375 c 12
 551.440429688 741.1796875 697.48828125 677.443359375 704.258789062 623.080078125 c 4
 709.846679688 578.557617188 719.418945312 403.883789062 719.418945312 262.4296875 c 4
 719.418945312 183.516601562 716.439453125 114.942382812 708.126953125 85.0703125 c 4
 701.356445312 60.7001953125 668.471679688 23.2080078125 624.948242188 -4.9111328125 c 4x7c
 100.725585938 -14.2841796875 l 6xbc
EndSplineSet
Validated: 1
EndChar

StartChar: ADLAM_CAPITAL_LETTER_BA
Encoding: 4 125188 6
Width: 1000
VWidth: 0
GlyphClass: 2
HStem: 0 21G<192 192> 282 64<254.055 402.752> 675.997 48.0029<499.1 608.226>
VStem: 184 64<443.983 687.668> 416 36.2887<357.408 578.466> 652.525 56.4751<457.384 627.637>
LayerCount: 2
Back
SplineSet
398 250 m 1050
252 58 m 1050
EndSplineSet
Fore
SplineSet
470 349 m 0
 556 369 641 430 651 518 c 0
 652.032884758 527.166852225 652.524935367 535.970678789 652.524935367 544.401914292 c 0
 652.524935367 628.920155675 603.07926865 675.997099204 553.329728152 675.997099204 c 0
 502.964923943 675.997099204 452.288683327 627.748533129 452.288683327 521.253817248 c 0
 452.288683327 499.604368717 454.382998058 475.547761169 459 449 c 0
 468 395 462 349 470 349 c 0
228 742 m 0
 242 742 248 726 248 672 c 0
 248 634 241 502 241 425 c 0
 241 391 242 368 246 368 c 2
 246 368 330 346 377 346 c 0
 393 346 404 349 406 356 c 0
 414 386 416 419 416 453 c 0
 416 496.333333333 408.888888889 540.555555556 408.888888889 580.333333333 c 0
 408.888888889 600.222222222 410.666666667 619 416 636 c 0
 436 702 476 724 568 724 c 0
 660 724 708 618 709 572 c 0
 709 571 709 569 709 568 c 0
 709 478 692 453 645 402 c 24
 590 342 462 300 462 300 c 1
 462 186 l 18
 462 151.536517381 494.078624471 144.422118445 534.178045464 144.422118445 c 0
 562.37549767 144.422118445 594.539025892 147.940004344 622.303518959 147.940004344 c 0
 642.126088657 147.940004344 659.706337052 146.146831474 672 140 c 0
 680 135 683 127 683 117 c 0
 683 89 660 50 660 50 c 1
 660 50 660 50 660 51 c 0
 660 56 648 80 436 94 c 0
 399 96 412 294 400 294 c 0
 400 294 378 282 362 282 c 24
 320 282 254 298 254 298 c 1
 252 58 l 25
 252 58 262 24 270 22 c 0
 270 22 271 22 271 22 c 0
 271 18 192 -0 192 0 c 1
 192 0 192 628 184 654 c 0
 177 675 161 679 161 694 c 0
 161 728 212 742 228 742 c 0
EndSplineSet
Validated: 5
EndChar

StartChar: ADLAM_CAPITAL_LETTER_SINNYIIYHE
Encoding: 5 125189 7
Width: 1000
VWidth: 0
GlyphClass: 2
HStem: -6.22222 64.0671<446.069 708.863> 153.31 62.6522<314.787 385.461> 166 31.6145<551.636 610.926>
VStem: 208 58<513.625 648> 216 66<292 464.375> 446 60<310 626> 710 64<76 375> 714 74<375 608>
LayerCount: 2
Back
Fore
SplineSet
200 14 m 25xa6
 242 68 l 25
 242 68 460 74 500 74 c 0
 537.894736842 74 599.12465374 57.8448753463 693.892987316 57.8448753463 c 0
 699.157894737 57.8448753463 704.526315789 57.8947368421 710 58 c 9
 708 272 l 26
 708 272 618 166 574 166 c 0xa6
 530 166 486 208 456 235 c 2
 444 246 l 18
 444 246 390.385186479 153.309983405 337.73005519 153.309983405 c 0
 335.148921303 153.309983405 332.570093458 153.53271028 330 154 c 0
 286 162 217 206 216 234 c 10xce
 208 648 l 26
 266 686 l 26xd4
 282 292 l 18
 282 292 309.295625701 215.962185547 354.261837299 215.962185547 c 0xcc
 354.838327191 215.962185547 355.417721519 215.974683544 356 216 c 0
 402 218 446 224 446 264 c 26
 444 626 l 26
 502 674 l 26
 506 310 l 26
 506 310 570 204 590 198 c 0
 590.862625428 197.741212372 591.872215076 197.61450651 593.014566925 197.61450651 c 0
 618.357681695 197.61450651 709.043131271 259.976057727 710 326 c 10xae
 714 608 l 26
 700 624 l 26
 788 674 l 26xa5
 774 76 l 26
 708 0 l 18
 708 0 684 -6.22222222222 618.814814815 -6.22222222222 c 0
 586.222222222 -6.22222222222 543.333333333 -4.66666666667 488 0 c 0
 301 16 312 9 200 14 c 25xa6
EndSplineSet
Validated: 1
EndChar

StartChar: ADLAM_CAPITAL_LETTER_PE
Encoding: 6 125190 8
Width: 1000
VWidth: 0
GlyphClass: 2
HStem: -1 40<589.437 712.973>
VStem: 322 63<66.9309 323.966 324 555.38 607.143 614> 326 66<572 614> 694 49<267.489 508.092>
LayerCount: 2
Back
Fore
SplineSet
542 608 m 1xd0
 542 608 412 598 390 530 c 0
 384 510 382 471 382 424 c 0
 382 364 385 290 385 223 c 0
 385 206 385 190 384 174 c 0
 384 160 383 148 383 138 c 0
 383 52 401 61 492 58 c 0
 493 58 493 58 494 58 c 0
 562 58 692 166 694 386 c 0
 694 387 694 389 694 390 c 0
 694 608 542 608 542 608 c 1xd0
326 614 m 26xb0
 388 654 l 26
 392 572 l 18xb0
 392 572 470 652 563 652 c 0
 564 652 565 652 566 652 c 0
 659 650 743 562 743 371 c 0
 743 369 743 366 743 364 c 0
 741 206 584 95 584 72 c 0
 584 70 586 69 589 68 c 2
 588 65 587 63 587 61 c 0
 587 43 628 39 668 39 c 0
 707 39 746 43 746 43 c 2
 700 -24 l 26
 680 0 l 2
 680 0 644 -1 596 -1 c 0
 503 -1 364 2 345 20 c 0
 326 37 322 141 322 222 c 0xd0
 322 278 324 324 324 324 c 1
 326 614 l 26xb0
EndSplineSet
Validated: 1
EndChar

StartChar: ADLAM_CAPITAL_LETTER_BHE
Encoding: 7 125191 9
Width: 1000
VWidth: 0
HStem: 642.299 62.8086<398.009 628.413>
VStem: 270 61.2648<405.785 565.7> 277.982 60.7615<-30.88 72.9626> 622 64<94 250.167> 629.835 62.1648<474.812 555.995> 639.701 52.2992<257.588 396 403.292 554.816>
LayerCount: 2
Back
SplineSet
278 -4 m 1
 284.071289062 111.361328125 434 248 434 248 c 17
 451.048828125 275.541015625 288 246 270 436 c 1
 291 622 368 606 368 630 c 10
 368 660 l 26
 404 688 l 26
 474 705 l 26
 542 706 l 18
 618.002841374 707.117688844 659.837890625 731.849609375 722 779 c 0
 764.616210938 811.32421875 681 707 639 671 c 0
 591.724609375 630.478515625 548 643 483 641 c 0
 446.671875 639.881835938 406 641 391 633 c 0
 332.232421875 601.657226562 328 540 332 468 c 0
 336.510742188 386.8046875 407.276608828 330.350695639 488 322 c 0
 517 319 626.833453416 373.02461579 638 448 c 0
 645 495 627.76 554.32 630 556 c 10
 710 616 l 26
 714 582 l 26
 692 566 l 26
 685 94 l 30
 722 64 l 26
 672 10 l 26
 622 46 l 26
 634 396 l 26
 474 262 l 26
 408 207 365 135 343 76 c 4
 328.778320312 37.8583984375 350 -7 328 -47 c 4
 317.686523438 -65.751953125 277 -23 278 -4 c 1
EndSplineSet
Fore
SplineSet
278 -4 m 1xb0
 284 111 434 248 434 248 c 17
 434.906676625 249.493349735 435.338320593 250.844474124 435.338320593 252.091907176 c 0
 435.338320593 274.233586973 299.346648508 263.706773277 270 436 c 1
 279 630 340 605 340 629 c 9
 363 644 376 674 404 688 c 16
 427.205080757 699.138438763 443.51767162 705.107510106 468.132147127 705.107510106 c 0
 470.036083433 705.107510106 471.989690448 705.07179677 474 705 c 0
 480.984297892 704.792545607 487.815574184 704.68551164 494.507386637 704.68551164 c 0
 584.585939396 704.68551164 649.393814214 724.079936393 722 779 c 0
 727.607209559 783.172807114 731.054883435 785.033040583 732.717754421 785.033040583 c 0
 733.534502213 785.033040583 733.92067473 784.584268037 733.92067473 783.74032154 c 0
 733.92067473 773.125799153 672.833161207 699.999852463 639 671 c 0
 609.285960162 645.337874685 573.491175396 641.769122608 535.9045974 641.769122608 c 0
 521.422554593 641.769122608 506.674511582 642.298920781 491.90579363 642.298920781 c 0
 459.866232359 642.298920781 427.729366837 639.805486167 398 624 c 0
 345.962793153 596.658416741 331.264800046 552.203027185 331.264800046 492.692124115 c 0
 331.264800046 484.729319547 331.527946227 476.496967915 332 468 c 0
 337 387 407 330 488 322 c 0
 488.769607577 321.920385423 489.596261482 321.880914558 490.476597478 321.880914558 c 0
 522.768679019 321.880914558 627.291920115 374.990364423 638 448 c 0
 639.207398426 456.106818006 639.700766995 464.570650941 639.700766995 473.037414411 c 0xc4
 639.700766995 510.89847267 629.835198392 548.8181309 629.835198392 555.134796841 c 0x88
 629.835198392 555.595102109 629.887587161 555.887587161 630 556 c 10
 710 616 l 26
 714 582 l 26
 692 566 l 26x84
 686 94 l 26
 722 64 l 26
 672 10 l 26
 622 46 l 26
 634 396 l 26
 474 262 l 26
 408 207 366 135 344 76 c 0
 339.78789585 64.5671458795 338.743974088 52.5006552815 338.743974088 40.127337533 c 0
 338.743974088 27.9661408097 339.75240987 15.5085468958 339.75240987 3.06484372431 c 0
 339.75240987 -13.9119317072 337.875431063 -30.8628526127 329 -47 c 0
 327.257050825 -50.3116034327 324.541992188 -37.7392578125 321.251953125 -37.7392578125 c 0
 305.887695312 -37.7392578125 277.982438395 -20.5939718126 277.982438395 -4.67944980399 c 0
 277.982438395 -4.44974697599 277.988251725 -4.22321722442 278 -4 c 1xb0
EndSplineSet
Validated: 1
EndChar

StartChar: ADLAM_CAPITAL_LETTER_RA
Encoding: 8 125192 10
Width: 1000
VWidth: 0
HStem: 0 59.8875<308.896 546.129> 14.2222 51.8557<330.863 636.5> 219.698 41.3633<341.691 486.002>
VStem: 208.85 72.1503<79.8673 251.778 285.572 617.107> 224.827 56.1731<398.838 679.421> 652.803 50.7571<441.946 700.377>
LayerCount: 2
Back
SplineSet
195 688 m 26
 275 740 l 26
 277 326 l 1050
EndSplineSet
Fore
SplineSet
651 -14 m 25x74
 619 0 l 18xb4
 594.333333333 10.6666666667 571 14.2222222222 548.259259259 14.2222222222 c 0x74
 502.777777778 14.2222222222 459.666666667 0 413 0 c 0
 377 0 339.75 -8 307.375 -8 c 0
 275 -8 247.5 0 231 32 c 0
 213.547598086 66.0321837323 208.849748848 109.582690357 208.849748848 158.830815152 c 0xb4
 208.849748848 216.263800563 215.238889689 281.445626581 215.238889689 348.316489524 c 0
 215.238889689 355.527219736 215.164600247 362.757589148 215 370 c 0
 214.826153232 377.011819638 214.746332638 384.110949295 214.746332638 391.271896766 c 0
 214.746332638 471.746062169 224.826945651 560.02725365 224.826945651 619.935736834 c 0
 224.826945651 646.689793919 222.816512699 667.785323332 217 680 c 9
 197 694 l 25
 281 746 l 26xac
 279 332 l 18
 279 280.497937867 339.358255591 261.061199018 398.227084037 261.061199018 c 0
 425.086126489 261.061199018 451.635120515 265.107271559 472 272 c 0
 585 310 633 358 643 524 c 0
 645.454280853 563.26849364 652.802650989 606.301671345 652.802650989 635.544308286 c 0
 652.802650989 653.961476718 649.887885098 666.908561705 641 670 c 9
 603 672 l 26
 691 745 l 18
 691.385328627 745.308262902 691.761418614 745.458809012 692.128320816 745.458809012 c 0
 699.911099741 745.458809012 703.559792188 677.719885535 703.559792188 610.682596847 c 0
 703.559792188 557.855588109 701.294019091 505.464282093 697 487 c 0
 669 364 535 252 451 224 c 0
 442.014087878 220.964218878 432.703773717 219.697903424 423.280344796 219.697903424 c 0
 375.847060118 219.697903424 325.547831031 251.782042372 299.328767113 251.782042372 c 0
 287.861119064 251.782042372 281 245.644355401 281 228 c 10
 281 122 l 18
 281 70.8569178839 333.534797284 59.8875042796 392.564742941 59.8875042796 c 0xb4
 436.909232537 59.8875042796 484.919141166 66.0778936443 517.076535301 66.0778936443 c 0
 519.116477216 66.0778936443 521.092626272 66.0529826035 523 66 c 0
 525.973186703 65.9324275749 528.939524357 65.9002419027 531.895927583 65.9002419027 c 0
 591.346990738 65.9002419027 646.780749137 78.9155513909 673.107449549 78.9155513909 c 0
 683.309502668 78.9155513909 689.140557772 76.9610463369 689.140557772 71.5372269993 c 0
 689.140557772 71.0528473794 689.094051831 70.5407980285 689 70 c 9
 688 31 673 4 651 -14 c 25x74
EndSplineSet
Validated: 1
EndChar

StartChar: ADLAM_CAPITAL_LETTER_E
Encoding: 9 125193 11
Width: 1000
VWidth: 0
LayerCount: 2
Back
Fore
SplineSet
543 74 m 0
 661 72 710.519688287 80.0748567336 715 154 c 0
 719 220 641 306 553 310 c 24
 460 315 360.875220126 247.005283016 357 172 c 0
 352.042376448 76.0446876472 460.914286682 75.3912832766 543 74 c 0
275 116 m 17
 285.823242188 92.6220703125 246.616303758 150.00079659 482 354 c 0
 497 367 706 477 720 550 c 0
 737.785765434 642.740062619 611.034722641 679.822649554 516 684 c 0
 243 696 281.552734375 599.081054688 260 479 c 0
 237.360351562 352.862304688 234.805763273 183.526317701 275 116 c 17
261 18 m 4
 227 0 197 46 189 146 c 0
 186.283975598 179.950305027 200.986242475 493.954141584 225 574 c 0
 249 654 373 728 411 734 c 0
 490.07040995 746.484801571 587.934921646 748.485900789 675 728 c 0
 709 720 779 658 783 590 c 24
 786 528 733 506 689 462 c 24
 646 420 573 370 573 370 c 10
 494 315 754 450 768 224 c 0
 773.577148438 133.97265625 718 61 631 24 c 0
 516.812876603 -24.5623398355 430 77 313 36 c 26
 292 37 279.789588837 27.9474293841 261 18 c 4
EndSplineSet
Validated: 33
EndChar

StartChar: ADLAM_CAPITAL_LETTER_FA
Encoding: 10 125194 12
Width: 1000
VWidth: 0
LayerCount: 2
Back
Fore
SplineSet
313 178 m 4
 283.460602579 340.466685816 275 530 295 596 c 0
 307.838867188 638.369140625 418.172851562 731.448242188 437 744 c 0
 449 752 611 758 635 736 c 0
 635 736 638.803278689 613.836065574 627 628 c 10
 627 628 602 688 567 700 c 24
 514 718 477 713 423 698 c 24
 388 688 365 674 351 640 c 0
 328.717188942 585.884601717 339 490 339 490 c 26
 337 407 375 590 535 584 c 0
 702.881835938 577.704101562 618 398 645 268 c 0
 664.741975323 172.946044741 627.634482759 48.7862068966 655 18 c 10
 671 0 l 26
 633 -44 l 26
 593 -22 l 18
 593 -22 588.54071979 178.117429097 591 306 c 0
 595 514 594.844726562 542.153320312 497 534 c 0
 377 524 321 442 345 322 c 0
 352.109040831 286.454795844 340 262 357 230 c 24
 373 199 425 172 425 172 c 22
 457.927391087 143.914872308 315 167 313 178 c 4
EndSplineSet
Validated: 33
EndChar

StartChar: ADLAM_CAPITAL_LETTER_I
Encoding: 11 125195 13
Width: 1000
VWidth: 0
Flags: W
VStem: 715 68<336.352 611.007>
LayerCount: 2
Back
SplineSet
153 372 m 1052
513 -12 m 24,1,2
 403 -10 319 40 277 142 c 24,3,4
 215 294 388 442 277 564 c 26,5,-1
 257 586 l 26,6,-1
 317 616 l 26,7,-1
 345 600 l 26,8,-1
 351 194 l 26,9,10
 352 100 453 9 539 44 c 24,11,12
 660 93 660 212 701 336 c 24,13,14
 729 420 768 494 713 564 c 26,15,-1
 699 582 l 26,16,-1
 785 622 l 26,17,-1
 783 570 l 26,18,19
 776 400 827 289 755 134 c 24,20,21
 709 34 623 -14 513 -12 c 24,1,2
EndSplineSet
Fore
SplineSet
513 -12 m 24
 403 -10 299.392707252 33.9881179596 277 142 c 0
 243 306 284 400 277 564 c 24
 276 576 250 577 257 586 c 24
 273 607 291 612 317 616 c 24
 329 618 344 613 345 600 c 24
 358 442 295 333 347 183 c 24
 378 94 457.497070312 35.9912109375 550 44 c 4
 781 64 701 192 715 336 c 4
 723.568359375 424.127929688 714 475 713 564 c 24
 713 573 692 576 699 582 c 24
 728 605 748 627 785 622 c 24
 805 619 784.175907573 589.990428744 783 570 c 0
 773 400 799 296 766 134 c 4
 744.029296875 26.142578125 623 -14 513 -12 c 24
EndSplineSet
Validated: 33
EndChar

StartChar: ADLAM_CAPITAL_LETTER_O
Encoding: 12 -1 14
Width: 1000
VWidth: 0
HStem: 0 74.9463<492 743> 667.03 47.9889<479.158 642.283>
VStem: 170.987 62.788<280.185 435.364>
LayerCount: 2
Back
Fore
SplineSet
295 74 m 17
 231 108 172 243 171 353 c 0
 170.991574567 353.623482058 170.987372915 354.24811767 170.987372915 354.873886127 c 0
 170.987372915 502.790854916 405.749863557 714.004212717 583 715 c 0
 584.392426363 715.012432378 585.784543597 715.018682195 587.176201819 715.018682195 c 0
 697.72275809 715.018682195 805.372971347 675.582708881 835 563 c 0
 836.058823529 558.941176471 836.541522491 554.679930796 836.541522491 550.283584368 c 0
 836.541522491 504.85467128 785 445 785 445 c 2
 785 445 783.026402351 667.029735538 520.289581525 667.029735538 c 0
 518.538002719 667.029735538 516.774834437 667.01986755 515 667 c 0
 426.998352917 666.043460358 233.775375814 540.651260867 233.775375814 393.22218139 c 0
 233.775375814 386.523744379 234.174253202 379.779815815 235 373 c 0
 256.737210835 197.12620324 337.049587155 74.9463081747 570.467091641 74.9463081747 c 0
 573.288962002 74.9463081747 576.133209114 74.9641651139 579 75 c 0
 739 77 817 90 817 90 c 2
 831 16 l 26
 799 -40 l 2
 743 0 l 26
 241 14 l 2
 295 74 l 17
EndSplineSet
Validated: 1
EndChar

StartChar: NameMe.13
Encoding: 13 125197 15
Width: 1000
VWidth: 0
Flags: W
HStem: 525 44<425.608 618.665>
VStem: 287 60<552.55 726.064> 301 60<283.188 471.049>
LayerCount: 2
Back
SplineSet
683 208 m 30
 681 274 599 109 535 126 c 28
 426 155 353 202 309 306 c 20
 295.629732276 337.515631064 291.095060581 367.207139077 291.272172913 396 c 6
 291.836877485 487.803094591 340.301015741 570.470650187 303 674 c 14
 287 718 l 30
 347 752 l 30
 373 500 l 30
 380 430 469 563 539 572 c 28
 593 579 672 486 675 540 c 30
 685 698 l 30
 659 706 l 30
 733 762 l 30
 755 16 l 30
 769 0 l 30
 725 -44 l 30
 689 -12 l 30
 683 208 l 30
EndSplineSet
Fore
SplineSet
529 525 m 0xa0
 410.942932554 523.409771666 359.310546875 488.741210938 361 371 c 4
 362.189453125 288.096679688 417.550911012 199.035141359 505 189 c 0
 627 175 684.235351562 244.076171875 677 351 c 0
 668.818359375 471.901367188 637.689322872 526.464044843 529 525 c 0xa0
683 208 m 26
 681 274 651 120 535 126 c 0
 423.078211205 131.789058041 297.52463539 219.024043861 301 387 c 0xa0
 307 677 287 718 287 718 c 1
 300 741 347 752 347 752 c 2xc0
 347 752 335 648 359 569 c 0
 378.536132812 504.693359375 412.966813799 563.748617242 539 569 c 0
 635 573 675.330824517 493.085903479 680 540 c 0
 701 751 658.95153938 705.848560561 659 706 c 0
 667 731 743 762 743 762 c 2
 743 762 713 403 741 19 c 0
 741.581788745 11.0211829288 769 0 769 0 c 2
 725 -44 l 26
 725 -44 692 -31 689 -12 c 24
 675 73 683 208 683 208 c 26
EndSplineSet
Validated: 33
EndChar

StartChar: ADLAM_CAPITAL_LETTER_YHE
Encoding: 14 125198 16
Width: 1000
VWidth: 0
Flags: W
HStem: 2 54<360.772 707>
VStem: 197 66<134.605 273.423>
LayerCount: 2
Back
SplineSet
197 188 m 4
 197 306.447406767 340.954568909 435.954568909 385 480 c 4
 415 510 607 444 559 492 c 30
 393 658 l 30
 465 710 l 30
 465 710 502.39463074 693.649546199 515 674 c 4
 583 568 705 484 705 484 c 30
 647 430 l 30
 377 422 l 30
 285 419 263 297 263 211 c 4
 263 77.953125 401.305664062 44.283203125 549 54 c 4
 701 64 770.04296875 63.546875 767 56 c 14
 717 -64 l 30
 707 0 l 30
 347 0 l 30
 253 0 197 106 197 188 c 4
EndSplineSet
Fore
SplineSet
197 190 m 4
 197 308.447265625 340.954101562 437.954101562 385 482 c 4
 415 512 607 446 559 494 c 30
 393 660 l 30
 465 712 l 30
 465 712 502.39453125 695.649414062 515 676 c 4
 583 570 705 486 705 486 c 30
 647 432 l 30
 377 424 l 30
 285 421 263 299 263 213 c 4
 263 79.953125 401.305664062 46.283203125 549 56 c 4
 701 66 770.04296875 65.546875 767 58 c 14
 717 -62 l 30
 707 2 l 30
 347 2 l 30
 253 2 197 108 197 190 c 4
EndSplineSet
Validated: 33
EndChar

StartChar: ADLAM_CAPITAL_LETTER_WAW
Encoding: 15 125199 17
Width: 1000
VWidth: 0
HStem: 281 61<345.542 515.245> 596 62<548.777 694.448>
VStem: 271 65<142.182 455.434> 275 72<68 221.441> 638 74<36.0945 560.86>
LayerCount: 2
Back
Fore
SplineSet
387 -34 m 8xd8
 334 -18 279 -3 275 52 c 0xd8
 273 78 271 149 271 225 c 0
 271 319 275 420 289 450 c 0
 327 530 474 634 627 654 c 0
 651 657 665 658 675 658 c 0
 696 658 691 653 715 652 c 1
 715 652 712 523 712 369 c 0
 712 261 713 140 719 42 c 8
 720 26 751 18 751 18 c 26
 727 -44 l 26
 727 -44 650 -44 647 -10 c 0
 640 64 638 151 638 235 c 0
 638 419 649 592 649 592 c 1
 649 592 623 596 587 596 c 0
 539 596 474 589 429 554 c 0
 331 478 348 474 344 412 c 0
 343 396 336 372 336 355 c 0xe8
 336 342 340 333 351 333 c 0
 351 333 352 333 352 333 c 2
 352 333 421 342 482 342 c 0
 497 342 510 341 523 340 c 8
 539 339 555 316 555 316 c 26
 555 218 l 26
 555 218 519 267 485 276 c 16
 470 280 451 281 433 281 c 0
 386 281 339 272 339 272 c 10
 347 68 l 26
 347 68 369 34 389 20 c 24
 408 7 445 0 445 0 c 18
 449 -2 451 -4 451 -6 c 0
 451 -17 418 -35 396 -35 c 0
 393 -35 390 -35 387 -34 c 8xd8
EndSplineSet
Validated: 1
EndChar

StartChar: ADLAM_CAPITAL_LETTER_NUN
Encoding: 16 125200 18
Width: 1000
VWidth: 0
HStem: 665 51<406.85 599.071>
VStem: 200 67<123.421 252.101> 245 62<497.709 597.104> 583 72<85.3558 311.2> 593 68<184.8 406> 661 58<538.202 615.019>
LayerCount: 2
Back
Fore
SplineSet
583 90 m 14x94
 593 406 l 26x88
 661 456 l 25
 658.935390372 349.328502553 655 243.003134859 655 136 c 0
 655 57.1040215802 743 68.7366349384 743 66 c 2
 743 66 742 65 739 64 c 2
 740 64 741 63 741 62 c 0
 741 55 699 33 670 33 c 0
 630.057846013 33 583 61.8868857578 583 90 c 14x94
200 164 m 8xc4
 203 273 275 327 356 400 c 0
 412 450 457 458 529 488 c 0
 603.386439289 518.898982474 661 522 661 568 c 1
 652.35425278 649.053880191 551.148094794 665 465 665 c 0
 393 665 318 648 307 586 c 0
 303.199853258 565.732550708 309.384890147 471 299 471 c 0
 281.873436803 471 245 519.865086009 245 548 c 0xa4
 251 621 389 716 514 716 c 0
 608.831420701 716 719 668.048613404 719 586 c 0
 719 532 633 477 555 458 c 0
 488.328288831 441.837160929 267 388.95087898 267 203 c 0
 267 107 328 84 363 76 c 0
 409.853188864 68.1911351893 518.619185063 97.6287012655 518.619185063 91.7697473092 c 0
 518.619185063 78.1955086804 421.030113667 10.2953175104 354.080291288 10.2953175104 c 0
 263.390370401 10.2953175104 200 74.6646686456 200 164 c 8xc4
EndSplineSet
Validated: 33
EndChar

StartChar: ADLAM_CAPITAL_LETTER_KAF
Encoding: 17 125201 19
Width: 1000
VWidth: 0
Flags: W
HStem: 6 46<159 387.2> 290 86<263 420.003>
VStem: 469 86<370.511 654> 485 70<90 314> 787 90<18 273.625> 787 82<18.4673 370>
LayerCount: 2
Back
Fore
SplineSet
101 6 m 10xd8
 159 52 l 26
 485 62 l 26xd8
 479 302 l 26
 478 355 396 290 343 290 c 0
 270.66015625 290 147.354492188 313.001953125 163 332 c 10
 219 400 l 26
 263 376 l 30
 469 370 l 30
 471 654 l 26
 227 666 l 26
 291 726 l 18
 309.561523438 743.401367188 451 719 553 720 c 24
 689 721 901 732 901 732 c 10
 831 664 l 26
 553 656 l 26
 555 374 l 26
 556 297 671.7578125 385.080078125 749 406 c 0
 797 419 873.209960938 447.956054688 873 428 c 10
 869 48 l 26xe4
 869 36 884 28 877 18 c 24
 864 -2 850 -15 827 -18 c 0
 801.046875 -21.384765625 744.12109375 -5.388671875 765 6 c 10
 787 18 l 26
 783 370 l 26
 603 318 l 26
 555 314 l 26
 555 90 l 26
 473 -4 l 18
 459.508789062 -19.46484375 350 4 271 6 c 24
 205 8 69 -26 101 6 c 10xd8
EndSplineSet
Validated: 33
EndChar

StartChar: ADLAM_CAPITAL_LETTER_YA
Encoding: 18 125202 20
Width: 1000
VWidth: 0
HStem: -5 54<239.118 404.417> 379 65<337.477 600.266>
VStem: 171 72<498.452 586.025> 655 76<489.14 596.747>
LayerCount: 2
Back
Fore
SplineSet
220 487 m 0
 201 487 163 515 171 541 c 24
 190 600 224 626 272 665 c 26
 335 717 l 18
 357.587890625 735.352539062 639 725 669 677 c 0
 683.990234375 653.014648438 732.947265625 609.576171875 731 557 c 0
 727 449 624.048566832 434.710088791 629 427 c 2
 611.322265625 404.469726562 755 336 759 209 c 4
 762.52635999 97.0380703191 699 0 625 -5 c 0
 448.11230401 -16.9518713507 359 -5 189 -5 c 24
 170 -5 144 -5 144 -5 c 10
 125 33 l 26
 188 83 l 18
 221.179935075 109.333281806 233 48 310 49 c 0
 404.039929986 50.221297792 448.380158648 42.913592745 539 49 c 0
 673 58 705 60 693 195 c 0
 677.745439474 366.613805922 571.162365634 378.083369783 463 379 c 0
 345 380 309.289113784 377.122600455 289 343 c 0
 267 306 224 337 241 345 c 18
 198.448873484 346.772963605 327 446 447 444 c 0
 597.009163841 441.499847269 653.478011577 431.007654112 655 517 c 0
 657 630 572.981445312 658.057617188 445 661 c 0
 271 665 289 636 243 579 c 0
 219.259662707 549.582625528 257.58984375 487 220 487 c 0
EndSplineSet
Validated: 33
EndChar

StartChar: ADLAM_CAPITAL_LETTER_U
Encoding: 19 125203 21
Width: 1000
VWidth: 0
Flags: W
LayerCount: 2
Back
Fore
SplineSet
659 594 m 0
 642.852741875 623.987765089 576.070459633 476.177363904 529 326 c 0
 482.014058844 176.092290613 367 70 367 70 c 10
 349 42 416 46 449 44 c 24
 492 42 500 29 539 49 c 24
 580 70 642.331054688 109.647460938 648 155 c 0
 655 211 673 568 659 594 c 0
429 201 m 0
 465.744140625 283.673828125 502.044113096 333.205964276 497 424 c 0
 491 532 457.386866253 577.933017107 377 600 c 0
 275 628 266.977968102 534.148836361 261 466 c 0
 251 352 235 284 259 172 c 0
 269.522449868 122.89523395 316 35 345 76 c 18
 345 76 405 147 429 201 c 0
658 114 m 0
 581 36 488.953690626 -28.5106489003 420 -22 c 0
 187 0 169.731394731 141.197631154 172 300 c 0
 175 510 267 654 418 672 c 0
 516.384225719 683.727920947 568.694335938 541.436523438 578 552 c 10
 724 720 l 26
 731 226 l 26
 722 187 l 18
 702.46484375 145.487304688 722 126 705 90 c 24
 679 36 652 14 616 -34 c 17
 621.159395476 -15.2971913998 640.968055104 24.7330388061 647 46 c 0
 659.673951713 90.6848311606 658 114 658 114 c 0
EndSplineSet
Validated: 33
EndChar

StartChar: ADLAM_CAPITAL_LETTER_JIIM
Encoding: 20 125204 22
Width: 1000
VWidth: 0
HStem: -4 64<290.152 720.019> 673 45<579.109 702.848>
LayerCount: 2
Back
Fore
SplineSet
802 -4 m 18
 787.885742188 -20.74609375 614.004882812 -5.6904296875 494 -4 c 0
 352 -2 120.265625 -18.017578125 130 -4 c 10
 193 68 l 18
 201.185546875 79.7880859375 399 56 518 60 c 0
 619.947265625 63.4267578125 741.029296875 17.2548828125 768 67 c 0
 813 150 769 571 769 571 c 18
 769.51953125 614.803710938 692.569335938 676.024414062 623 673 c 0
 577 671 506.25390625 680.70703125 499 632 c 0
 485 538 587.991210938 524.584960938 565 453 c 0
 521 316 541 308 381 169 c 0
 313.529296875 110.384765625 533 319 511 430 c 24
 488 550 414.814504903 651.169067542 293 659 c 4
 153 668 181 593 183 547 c 4
 187.405202824 445.680335059 176 371 211 276 c 26
 227 232 l 26
 253 199 l 18
 266.541015625 183.653320312 192.178710938 181.26171875 163 201 c 0
 129 224 117.864257812 339.5859375 113 432 c 0
 109 508 85 574 121 606 c 0
 189.34198992 666.748435484 248 696 343 712 c 0
 401.038363825 721.774882328 428 665 487 666 c 24
 556 667 588 721 657 718 c 24
 731 715 799.604492188 690.684570312 816 650 c 0
 864.526367188 529.58203125 873 206 853 66 c 0
 848.298936291 33.0925540341 835 -5 802 -4 c 18
EndSplineSet
Validated: 33
EndChar

StartChar: ADLAM_CAPITAL_LETTER_CHI
Encoding: 21 125205 23
Width: 1000
VWidth: 0
HStem: 617 54<447.284 597.858>
VStem: 231 52<498.25 610> 235 56<430.587 607.701> 608 63<63.008 606.1>
LayerCount: 2
Back
Fore
SplineSet
635 14 m 30x90
 608 35 l 26
 610 447 l 26
 610 474.606787148 609.766015648 573.625758262 604 576 c 25
 604 619 545.181263031 616.139157897 503 617 c 0
 454 618 423.132163139 595.18482189 415 595 c 10
 371 594 l 26
 447 663 l 18
 452.337382557 667.845781532 504 671 541 671 c 0
 584.104524125 671 609 663 650 648 c 24
 662 643 672 635 672 622 c 26
 672 622 666 294 671 84 c 24
 671 74 684 63 684 63 c 26
 635 14 l 30x90
581 70 m 10
 535 12 l 18
 530.174804688 4.6572265625 459.5632428 -6.21624804314 317 -16 c 0
 215 -23 171 48 170 130 c 24
 169 232 292 316 313 348 c 0
 322.327159505 362.212814484 245 362 235 414 c 0xb0
 228.851574317 445.971813549 240 562 231 610 c 0
 211 624 l 26
 283 682 l 26xd0
 291 472 l 26xb0
 293 422 350 407 401 404 c 24
 462 400 590.040039062 495.96484375 549 450 c 0
 499 394 460 367 437 364 c 0
 348.308562963 352.431551691 252 299 229 198 c 0
 211.9246885 123.017110371 235 55 365 54 c 0
 453.201698806 53.3215253938 604.940873416 100.186318654 581 70 c 10
EndSplineSet
Validated: 33
EndChar

StartChar: ADLAM_CAPITAL_LETTER_HA
Encoding: 22 125206 24
Width: 1000
VWidth: 0
Flags: W
VStem: 637 49<103.583 259.917>
LayerCount: 2
Back
Fore
SplineSet
713 308 m 0
 720.460076214 277.761824412 687.268554688 216.98828125 686 148 c 0
 684.087620451 43.9983519147 526 -21 393 -14 c 0
 293.118386099 -8.7430729526 176 -31 126 -4 c 0
 112.568827022 3.25283340795 94.527864045 77.05572809 99 86 c 0
 181 94 l 26
 181 94 184.17645594 68.3572691287 197 66 c 4
 333 41 550 67 550 67 c 26
 633 62 639.375960354 166.841387623 637 250 c 0
 635 320 580 495 345 498 c 0
 274.941452254 498.894364439 232.080407996 454.103059973 235 476 c 0
 237 491 246 465 271 540 c 0
 277.107372594 558.322117782 302 677 321 678 c 26
 373 682 l 26
 345 554 l 18
 340.022367195 531.245107176 638 612 713 308 c 0
EndSplineSet
Validated: 33
EndChar

StartChar: ADLAM_CAPITAL_LETTER_QAAF
Encoding: 23 125207 25
Width: 1000
VWidth: 0
HStem: 605 52<269.812 374.977>
VStem: 144 75<409.404 524.256> 432 64<390.851 541.606>
LayerCount: 2
Back
Fore
SplineSet
432 434 m 0
 432 517.862983491 403 605 304 605 c 0
 261.952407917 605 237 586 228 533 c 0
 222.97476954 503.40697618 218 486 219 458 c 0
 220.246651566 423.093756148 242.366063489 407.160723813 265 380 c 0
 290 350 303.241399165 335.268610215 355 335 c 0
 437.043945312 334.57421875 432 396 432 434 c 0
647 -2 m 22
 634.4765625 -12.8154296875 494 -1 397 0 c 24
 288 1 104.838337932 -11.9444895309 117 0 c 10
 173 55 l 26
 173 55 643 36 658 49 c 0
 680.43009445 68.4394151904 669 433 669 433 c 18
 669.482421875 450.04296875 577.331054688 378.609375 555 360 c 0
 531 340 460 319 430 295 c 0
 353.009765625 233.408203125 306 207 219 163 c 24
 209 158 188.403023599 178.792377017 199 183 c 0
 267 210 356 262 360 284 c 0
 370.592072507 342.25639879 256.777072416 266.253038243 209 301 c 0
 165 333 144 373 144 430 c 0
 144 480 165.602915786 544.794086211 211 601 c 0
 232 627 324 657 345 657 c 0
 402.079101562 657 440.597180369 635.504405674 471 588 c 0
 487 563 498 511 496 460 c 24
 494 413 450.488101979 355.511898021 461 345 c 0
 469 337 532.45191363 369.828472255 572 396 c 0
 640 441 654 450 668 532 c 0
 672.443154116 558.024188393 679 577 665 599 c 26
 655 614 l 26
 780 662 l 26
 784 636 l 26
 784 636 765.439850941 621.958658467 764 609 c 0
 740 393 748.366145523 136.830727617 735 70 c 0
 730 45 647 -2 647 -2 c 22
EndSplineSet
Validated: 33
EndChar

StartChar: ADLAM_CAPITAL_LETTER_GA
Encoding: 24 125208 26
Width: 1000
VWidth: 0
HStem: -13 58.7758<327.039 611.767> 0 57.5<206.845 386.016> 321.756 54.5397<280.998 488.124>
VStem: 151 105<574.846 702> 618.781 64.2189<54.2243 202.901> 655 12.7991<709.081 711.079>
LayerCount: 2
Back
Fore
SplineSet
540 -13 m 0xb8
 460.922828489 -13 281.337683938 0 167 0 c 4
 144 0 116 11 116 24 c 1
 116 36 145 71 177 85 c 16
 178.177553163 85.4529050626 179.256647287 85.6596625303 180.255862623 85.6596625303 c 0
 190.287825983 85.6596625303 192.268134175 64.818837975 205 63 c 0
 244.5 58 275.5 57.5 306.625 57.5 c 0x78
 314.40625 57.5 322.1953125 57.53125 330.126953125 57.53125 c 0
 392.773998907 57.53125 506.361911771 45.7758322154 548.554647884 45.7758322154 c 0
 599.557150277 45.7758322154 618.781065089 57.1224966126 618.781065089 97.6131087847 c 0xb8
 618.781065089 109.668639053 617.076923077 124.307692308 614 142 c 0
 594.02714202 260.410515168 527.185174057 321.75611226 372.532570652 321.75611226 c 0
 225.182457911 321.75611226 151 400.855883084 151 479 c 0
 151 547 156 660 156 702 c 3
 156 702 193.285925926 723.03308642 218.313174211 723.03308642 c 0
 218.881975309 723.03308642 219.444444444 723.022222222 220 723 c 0
 252 722 256 684 256 652 c 0
 256 625.290408342 218.512383976 561.344919395 229 507 c 8
 242.513656649 431.323522768 261.030759969 376.295772436 357.766034608 376.295772436 c 0
 401.319993426 376.295772436 458.525020849 384.084845294 499 402 c 0
 564.902116638 431.22074983 575.143427585 461.987633151 575.143427585 496.463483047 c 0
 575.143427585 535.781079558 579.472547157 583.942176108 579.472547157 619.327026209 c 0
 579.472547157 631.162631507 578.045667841 643.435595774 574 658 c 8
 571 669 536 659 545 666 c 24
 583 695 655 720 655 720 c 1
 664.350221802 710.182267108 667.799144881 691.621869443 667.799144881 669.530105245 c 0xb4
 667.799144881 608.949967665 661.174189544 518.837861895 637 481 c 24
 603 429 520 376 520 376 c 17
 520 349 683 325 683 191 c 1
 683 125 682 102 667 53 c 1
 642 3 590 -13 540 -13 c 0xb8
EndSplineSet
Validated: 33
EndChar

StartChar: ADLAM_CAPITAL_LETTER_NYA
Encoding: 25 125209 27
Width: 1000
VWidth: 0
Flags: W
HStem: 64.2243 61.7631<309.756 477.367> 650.551 47.8344<303.903 502.704>
VStem: 166.979 55.0211<494.337 590.179> 177.758 60.2424<185.909 300.769> 565.861 50.2133<504.965 583.827> 609.03 51.1445<136.699 165 165.192 267.65>
LayerCount: 2
Back
Fore
SplineSet
436 126 m 0xd4
 437.266746212 125.991610952 438.524484281 125.987444472 439.773275606 125.987444472 c 0
 584.411579241 125.987444472 609.030368074 181.880292278 609.030368074 206.521093976 c 0
 609.030368074 207.027515397 609.019969323 207.520736241 609 208 c 0
 607.064850239 291.211439709 479.678746504 390.338298953 379.929445591 390.338298953 c 0
 376.586672764 390.338298953 373.274937086 390.226975838 370 390 c 0
 282 384 238 332 238 253 c 0
 238 148 344 127 436 126 c 0xd4
604 165 m 0
 604 165 492 70 406 65 c 0
 396.446230908 64.4904656484 387.216993385 64.2243299738 378.273014435 64.2243299738 c 0
 317.00403191 64.2243299738 269.121286254 76.7131927522 222 109 c 0xe4
 188.866826696 131.088782202 177.757562731 168.424886254 177.757562731 209.314049256 c 0xd0
 177.757562731 212.851958017 177.84073185 216.416466629 178 220 c 0
 182 317 248 369 297 401 c 0
 297.278411598 401.185607732 297.41328057 401.383655825 297.41328057 401.596453306 c 0
 297.41328057 408.214144013 166.978919688 429.096249818 166.978919688 533.689051599 c 0
 166.978919688 534.454870883 166.985912326 535.22517793 167 536 c 0
 168 599 252 659 337 692 c 0
 344.717607026 694.572535675 406.205974929 698.385935063 454.429614168 698.385935063 c 0
 481.188241963 698.385935063 503.862678376 697.211794731 511 694 c 0
 568 668 612 634 616 571 c 0
 616.049667973 570.205312435 616.074050144 569.385955794 616.074050144 568.543599499 c 0
 616.074050144 535.466460111 578.478486285 466.925498041 558 464 c 0
 558 464 565.8608 492.6688 565.8608 521.393088 c 0
 565.8608 534.9104 564.12 548.44 559 559 c 0
 518 643 471 648 402 650 c 0
 391.650725791 650.330295985 381.398425305 650.551496533 371.347196143 650.551496533 c 0
 290.105497689 650.551496533 222 636.100232482 222 548 c 0xe8
 222 475 306 453 379 443 c 0
 456 433 514 420 584 374 c 24
 632 342 658 314 660 255 c 0
 660.116969576 251.467518792 660.174833423 247.964590449 660.174833423 244.490805277 c 0
 660.174833423 99.4736204908 559.333093658 5.24545635367 448 -68 c 0
 444.747056399 -70.1421823717 442.979697288 -71.157586676 442.483665519 -71.157586676 c 0
 442.385252253 -71.157586676 442.336882259 -71.1176173058 442.336882259 -71.0385483572 c 0
 442.336882259 -66.493079147 602.190162503 67.2687751437 604 165 c 0
EndSplineSet
Validated: 1
EndChar

StartChar: ADLAM_CAPITAL_LETTER_TU
Encoding: 26 125210 28
Width: 1000
VWidth: 0
Flags: W
HStem: 0 21G<780.941 817.231> 644 38<537.428 644.849>
VStem: 138 60<83.2116 271.286> 422 70<112.124 596.442> 751 55<355.62 516.273>
LayerCount: 2
Back
Fore
SplineSet
138 50 m 0
 138.442463802 257.214862397 106.280305452 406.778160546 138 580 c 0
 142.06371636 602.192030311 316 697 358 698 c 0
 376.243117372 698.434359937 405 657 438 656 c 0
 451.33554263 655.595892648 453 674 466 674 c 24
 481 674 485.14959168 656.337813666 500 654 c 0
 510.925364936 652.280083153 581.699315022 682.137594036 630 682 c 0
 693.762695312 681.818359375 753.165757482 659.264372549 775 600 c 0
 789 562 806.82447275 520.002965147 806 466 c 0
 804 335 760.910438219 319.066218421 704 242 c 0
 656 177 543.691059958 105.290248931 552 119 c 0
 572 152 746.633789062 259.90625 751 420 c 4
 754 530 657.106445312 645.798828125 597 644 c 4
 571.311523438 643.231445312 497 631 496 616 c 0
 489.946404564 525.196068465 485 358 492 194 c 24
 494 159 502.805928885 116.66834488 518 108 c 0
 612.942220511 53.8346676933 836.615384615 110.923076923 834 90 c 10
 826 26 l 26
 788 0 l 26
 776 34 l 18
 767.083076923 59.2646153846 609.019045892 32 504 32 c 0
 454 32 426.96875 103.375976562 422 164 c 0
 417 225 425 392 420 542 c 0
 417.987276873 602.381693796 368 635 308 642 c 24
 255 648 200.297482998 612.95197356 200 560 c 0
 199 382 191.747070312 279.071289062 198 104 c 0
 199 76 295.104934229 73.1327301994 316 0 c 0
 320 -14 285.761538746 -33.299547645 266 -24 c 0
 215 0 137.923129739 14.0000820701 138 50 c 0
EndSplineSet
Validated: 33
EndChar

StartChar: ADLAM_CAPITAL_LETTER_NHA
Encoding: 27 125211 29
Width: 1000
VWidth: 0
HStem: 6 45.5068<195.952 286.346> 660.203 20.9641<396.779 459.415>
VStem: 88.9855 59.9023<114.99 225.589> 147.985 52.0034<431.786 540.187> 394.051 64.8383<63.623 78 78.1141 418.044> 402.25 47.5<460.822 585.976> 613.007 44.9928<517.886 605.752>
LayerCount: 2
Back
Fore
SplineSet
461 462 m 0xc6
 468.435897436 460.717948718 476.447074293 460.076923077 484.765909742 460.076923077 c 0
 541.333990796 460.076923077 612.128205128 489.717948718 613 549 c 0
 613.004779637 549.382370942 613.007160556 549.763645328 613.007160556 550.143822611 c 0
 613.007160556 613.396477844 547.100412367 646.28 497.256 646.28 c 0
 484.72 646.28 473.2 644.2 464 640 c 0
 454 635.5 449.75 591.5 449.75 548.375 c 0
 449.75 505.25 454 463 461 462 c 0xc6
333 81 m 0
 330 45 267 6 205 6 c 0
 139.636801295 6 88.9855438603 61.9053768281 88.9855438603 127.092152758 c 0xea
 88.9855438603 127.727235253 88.9903514955 128.363198705 89 129 c 8
 90 226 138 278 208 344 c 0
 262 395 284 393 386 444 c 0
 399 450.5 402.25 486 402.25 519.875 c 0
 402.25 553.75 399 586 399 586 c 10
 372 589 l 26
 447 643 l 18
 455.609536462 649.24885711 459.417588688 653.607973436 459.417588688 656.374575267 c 0
 459.417588688 659.012428261 455.955718699 660.202538995 449.893071481 660.202538995 c 0
 416.524310197 660.202538995 304.367793323 624.149411276 257 595 c 8
 218 571 201 538 200 493 c 0
 199.992234872 492.471971284 199.988389063 491.947017726 199.988389063 491.425119661 c 0
 199.988389063 436.816918191 242.093236967 415.660991663 242.093236967 405.42990553 c 0
 242.093236967 403.166591485 240.032710213 401.437917204 235 400 c 0
 231.344701636 398.875292811 227.601558393 398.347930801 223.819970155 398.347930801 c 0
 187.660040454 398.347930801 147.984939453 446.566633198 147.984939453 481.817818899 c 0xd6
 147.984939453 482.213542272 147.989939269 482.607631492 148 483 c 0
 149 566 303 678 443 681 c 0
 447.922246843 681.108181249 452.941044943 681.166623972 458.031547776 681.166623972 c 0
 547.051676248 681.166623972 658 663.294115656 658 581 c 0
 658 458 462 436 462 436 c 2
 459.666666667 434.333333333 458.888888889 394 458.888888889 340.962962963 c 0
 458.888888889 234.888888889 462 78 462 78 c 2
 462 61.8548847172 490.300744014 59.3281725688 523.835441052 59.3281725688 c 0
 539.113999842 59.3281725688 555.478998827 59.8526560004 570.74895825 59.8526560004 c 0
 594.620061412 59.8526560004 615.815084997 58.5709129049 626 52 c 0
 639.165422967 43.5365138067 643.045397975 31.7567961992 643.045397975 18.3240696243 c 0
 643.045397975 3.18829938535 638.11922529 -14.0461976771 636 -31 c 8
 635 -41 623 -52 614 -46 c 0
 603 -39 598 -3 574 6 c 24
 527 25 495 14 445 21 c 0
 419 25 399 44 397 71 c 0
 393.858313424 117.77622235 393.031857667 174.666347748 393.031857667 228.739301383 c 0
 393.031857667 288.773761997 394.050591313 345.335625758 394.050591313 380.728033894 c 0
 394.050591313 403.946796243 393.612142846 418.054526086 392.159968258 418.054526086 c 0
 392.107954827 418.054526086 392.054640886 418.036427258 392 418 c 2
 392 421.271004127 389.340960615 422.800970562 384.586402279 422.800970562 c 0
 351.548737817 422.800970562 217.332183894 348.928909108 171 272 c 0
 155.764477059 246.340171888 148.887887832 220.358846326 148.887887832 194.507171636 c 0xea
 148.887887832 155.880348146 164.240197012 117.542976331 190 81 c 0
 205.582908681 58.9487141301 224.537214542 51.5068160361 243.482505781 51.5068160361 c 0
 282.823734865 51.5068160361 322.126091602 83.5973537743 331.119777985 83.5973537743 c 0
 332.367689689 83.5973537743 333.032076857 82.9795234338 333.032076857 81.572409651 c 0
 333.032076857 81.3943596453 333.021439181 81.203672216 333 81 c 0
EndSplineSet
Validated: 1
EndChar

StartChar: ADLAM_CAPITAL_LETTER_VA
Encoding: 28 125212 30
Width: 1000
VWidth: 0
Flags: W
HStem: 294.896 59.0371<365.001 489.852> 642.707 44.2935<406.881 541.072>
VStem: 116.134 74.5531<69.5654 437.284> 123.037 78.9634<218.355 456.423> 543 75<38.5603 325.096> 556.277 57.7232<403.05 623.959>
LayerCount: 2
Back
Fore
SplineSet
313 0 m 16xe0
 313.920505549 -2.30126387353 314.349559428 -4.44153495843 314.349559428 -6.42705303387 c 0
 314.349559428 -21.4586015355 289.758820028 -27.6206557504 267.651741946 -27.6206557504 c 0
 260.955886363 -27.6206557504 254.487877006 -27.0553609628 249 -26 c 8
 197 -16 147 -14 128 35 c 0
 118.913496405 58.8520719374 116.134006861 93.024712323 116.134006861 132.525117238 c 0xe0
 116.134006861 194.773281451 123.036644026 270.252517366 123.036644026 339.423052084 c 0
 123.036644026 342.293363265 123.024758163 345.152811299 123 348 c 0
 122.985376337 349.223513176 122.978094909 350.443129502 122.978094909 351.658858012 c 0
 122.978094909 599.84612901 426.438709904 686.004874554 516 687 c 0
 554 687 614 680 614 642 c 26xd4
 618 73 l 26
 618 59 621 50 630 38 c 24
 636 30 659 36 654 28 c 26
 636 0 l 26
 623 -38 l 26
 543 -5 l 26xc8
 537 307 l 18
 536.722297087 320.329739828 530.892032803 325.099280875 521.586573249 325.099280875 c 0
 498.169649633 325.099280875 452.745604605 294.895548197 418.419094321 294.895548197 c 0
 417.266465884 294.895548197 416.126349997 294.929603125 415 295 c 8
 371 297 306 290 305 320 c 0
 304.861928813 324.142135624 304.781048584 329.008690054 304.781048584 334.35224202 c 0
 304.781048584 367.710116937 307.932996624 419.656854249 320 430 c 0
 320 430 338 357 442 354 c 0
 443.531531532 353.954954955 445.043584125 353.932635338 446.536384449 353.932635338 c 0
 535.911784496 353.932635338 556.276795005 433.938033767 556.276795005 506.857910107 c 0
 556.276795005 567.912591051 542 624 542 624 c 1
 519.690685726 636.856215006 493.842672454 642.706520886 466.557671351 642.706520886 c 0
 349.524918421 642.706520886 206.054690073 535.073516237 202 411 c 0xd4
 199.642758215 334.389641985 190.68706719 276.18548448 190.68706719 215.512233974 c 0
 190.68706719 173.229137973 195.036555173 129.74688377 209 78 c 8
 222 29 295 47 313 0 c 16xe0
EndSplineSet
Validated: 1
EndChar

StartChar: ADLAM_CAPITAL_LETTER_KHA
Encoding: 29 125213 31
Width: 1000
VWidth: 0
Flags: H
HStem: -14 54<234.547 430.337> -10 67<355.844 638.486> 218 41<392.618 479.283> 612 63<367.204 455.427>
VStem: 161 60<53.6364 489.824 554.004 603.831> 560 64<368.894 492.928>
LayerCount: 2
Back
Fore
SplineSet
624 449 m 0xbc
 624 345 539 299 464 222 c 0
 462 219 459 218 456 218 c 0
 444.259789767 218 425.844726562 238.922851562 410 231 c 0
 382 221 355 177 355 177 c 0
 352 177 349 178 346 180 c 0
 310 201 294 240 294 284 c 0
 294 289 294 295 295 300 c 0
 302.647460938 384.119140625 448.575125798 533.424874202 466 516 c 1
 483 478 417.192382812 468.375976562 390 437 c 4
 353.48828125 393.533203125 340.550516223 259 409 259 c 0
 419 259 433 260 449 261 c 0
 506 264 560 329 560 392 c 0
 560 504.580878584 488.193785411 612 375 612 c 0
 285 612 228 532 228 462 c 0
 228 357 221 235 221 154 c 0
 221 58.7750209052 224.458772797 40 319 40 c 0xbc
 393 40 499 57 588 57 c 0
 614 57 638 56 660 52 c 0
 660 52 635 -10 613 -10 c 0
 613 -10 612 -10 612 -10 c 0x7c
 563 -6 520 -4 479 -4 c 0
 391 -4 313 -11 212 -14 c 0
 212 -14 211 -14 211 -14 c 2
 144.962219795 -14 161 98.4241285154 161 166 c 0
 161 372 168 604 168 604 c 10
 148 616 l 26
 224 686 l 1
 222.632360268 647.706087491 220 609.485197946 220 571 c 0
 220 559 223 554 229 554 c 0
 259 554 353 675 433 675 c 0
 553.377465677 675 624 568.235383575 624 449 c 0xbc
EndSplineSet
Validated: 33
EndChar

StartChar: ADLAM_CAPITAL_LETTER_GBE
Encoding: 30 125214 32
Width: 1000
VWidth: 0
Flags: HW
LayerCount: 2
Back
Fore
SplineSet
286 296 m 0
 321 296 377 462.986844383 377 501 c 0
 377 580 323 689 253 689 c 0
 178.993243552 689 215 577 221 503 c 24
 228 419 200.994117851 296 286 296 c 0
402 -114 m 0
 282.572576986 -102.291429116 176 -112 98 -110 c 0
 70.6959736403 -109.29989676 151.046176645 8.02251851327 162 0 c 0
 233 -52 366 -45 404 -46 c 0
 450.02734375 -47.2109375 588 -58 602 -28 c 0
 646.150538762 66.6082973476 580 213 370 210 c 0
 258.011426822 208.40016324 142 310 144 446 c 0
 145.251161622 531.078990324 126.919877336 629.17626986 112 662 c 0
 102 684 238 764 318 764 c 0
 409.8046875 764 454 658 454 588 c 0
 454 460 328 294 328 294 c 0
 350 278 486 286 502 302 c 0
 562.033203125 362.033203125 559 418 556 516 c 4
 551.774717578 654.025892457 553 652 536 666 c 0
 536 666 583 734 592 734 c 10
 648 734 l 26
 650 476 l 18
 650.589292152 399.981312342 533 302 548 288 c 4
 563.421875 273.606445312 693.781676568 205.957122115 696 78 c 0
 697.595091399 -14.0079109829 606 -134 402 -114 c 0
EndSplineSet
Validated: 33
EndChar

StartChar: ADLAM_CAPITAL_LETTER_ZAL
Encoding: 31 125215 33
Width: 1000
VWidth: 0
Flags: W
HStem: 69 55<300.594 475.88> 626 51<303.819 494.43>
VStem: 151 54<485.999 570.896> 158 63<186.037 294.016> 554 50<469.628 571.802> 590 64<164.996 279.608>
LayerCount: 2
Back
Fore
SplineSet
426 124 m 0xd4
 455 124 585 132 590 208 c 0
 590 211 590 214 590 217 c 0
 590 295 516 325 443 360 c 0
 422 370 367 385 331 385 c 0
 321 385 312 384 306 381 c 0
 249 358 222 306 221 250 c 0
 221 249 221 248 221 247 c 0
 221 155 327 124 426 124 c 0xd4
395 69 m 0
 388 69 381 69 374 69 c 0
 280 69 158 85 158 213 c 0
 158 215 158 217 158 219 c 0xd4
 161 340 282 370 282 394 c 0
 282 415 151 397 151 516 c 0
 151 517 151 519 151 520 c 0
 153 593 287 669 402 676 c 16
 413 677 425 677 437 677 c 0
 520 677 604 654 604 548 c 0
 604 498 547 450 547 450 c 0
 547 450 554 471 554 499 c 0
 554 551 530 626 394 626 c 0
 391 626 387 626 384 626 c 0
 304 626 207 624 205 537 c 0
 205 536 205 536 205 535 c 0xe8
 205 444 341 445 422 423 c 0
 530 394 654 353 654 253 c 0
 654 251 654 250 654 249 c 0
 649 82 450 -65 433 -65 c 0
 432 -65 432 -65 432 -64 c 0
 432 -54 593 59 597 155 c 0
 597 159 596 160 593 160 c 0
 574 160 487 71 395 69 c 0
EndSplineSet
Validated: 1
EndChar

StartChar: ADLAM_CAPITAL_LETTER_KPO
Encoding: 32 125216 34
Width: 1000
VWidth: 0
HStem: -19 70<453.175 506.95> -11 65<228.571 440.872> 398 61<308.603 380.025> 595 60<329.687 441.561>
VStem: 139 82<331.441 544.756> 407 70<260.081 369.466> 501 4<155.349 161.656>
LayerCount: 2
Back
Fore
SplineSet
314 94 m 4x3e
 286.583439904 80.6833850962 403 158 407 290 c 4
 408.519294863 340.136730479 383 400 339 398 c 4
 293.505783759 395.93208108 256.725625513 269.877134945 259 314 c 4
 264 411 303.318251921 459 377 459 c 4
 442 459 477.490447603 403.853712382 477 345 c 4
 476 225 349 111 314 94 c 4x3e
146 298 m 1048
501 -19 m 0xbe
 473 -22 391.02671382 -14.501335691 321 -11 c 0
 261 -8 173 -41 158 9 c 0
 128.160060014 108.466466619 153 348 139 571 c 0
 138.307931768 582.023658266 112.369854187 595 123 595 c 3
 147.186773245 595 173.86725405 633 189 633 c 3
 220.953090617 633 213.928932188 559 221 559 c 3
 228.071067812 559 320.902496993 655 403 655 c 3
 443.521599179 655 490.133931253 641 505 641 c 3
 515.630145813 641 503 505.014493566 503 497 c 3
 503 475 478 593 375 595 c 0
 195.092450511 598.493350476 223.110824516 485.123692 221 305 c 0
 218 49 185.888671875 54 348 54 c 0x7e
 475 54 491 134 501 161 c 4
 506.491522142 175.827109784 509.235775568 137.001818813 505 121 c 4
 496 87 451.310722481 66.8832950892 453 59 c 0
 456 45 506 57 507 51 c 0
 508.770631282 40.3762123108 514.265738707 -17.5786708528 501 -19 c 0xbe
EndSplineSet
Validated: 33
EndChar

StartChar: ADLAM_CAPITAL_LETTER_SHA
Encoding: 33 125217 35
Width: 1000
VWidth: 0
HStem: 169 56<309.25 511.402>
VStem: 605 62<343.013 612.982>
LayerCount: 2
Back
Fore
SplineSet
610 -29 m 0
 560.815254649 -10.0827902496 428 0 310 -9 c 0
 237.973470713 -14.4935488439 197.803944599 65.8422160548 196 138 c 0
 192 298 219 384 209 542 c 24
 208 565 164.83772234 560.864056379 168 583 c 0
 169 590 225.759233142 630.454986719 236 618 c 0
 273 573 259 512 270 437 c 24
 282.409898051 347.372958524 202.900390625 222.833984375 426 225 c 4
 632 227 599.875976562 323.100585938 605 429 c 4
 611 553 601.267459641 533.063891257 589 576 c 4
 585 590 646.598245749 629 658 629 c 4
 668 629 668.15234375 536.182617188 667 485 c 0
 662 263 563.840820312 176.423828125 403 169 c 0
 338 166 253.098530683 200.496110631 255 182 c 2
 248.746192893 182.446700508 237.01648155 85.9906843413 260 73 c 0
 329 34 638.76171875 68.65625 642 57 c 10
 657 9 l 18
 659.106017192 1.41833810888 623 -34 610 -29 c 0
EndSplineSet
Validated: 33
EndChar

StartChar: ADLAM_SMALL_LETTER_ALIF
Encoding: 34 125218 36
Width: 1000
VWidth: 0
HStem: -8.0918 62.042<330.015 464.477>
VStem: 151.316 86.8438<246.648 482.373> 566.8 86.8438<163.893 315.022>
LayerCount: 2
Back
Fore
SplineSet
360.76171875 -8.091796875 m 0
 224.5078125 -6.37109375 153.01953125 100.083007812 151.31640625 252.799804688 c 0
 150.370117188 337.724609375 163.876953125 465.20703125 153.01953125 470.740234375 c 10
 96.828125 499.374023438 l 18
 79.88671875 508.006835938 147.060546875 534.37109375 183.669921875 534.37109375 c 24
 209.211914062 534.37109375 238.688476562 523.923828125 238.16015625 499.374023438 c 0
 231.348632812 182.8046875 250.080078125 55.541015625 420.360351562 53.9501953125 c 0
 512.625 53.087890625 566.799804688 141.444335938 566.799804688 227.34765625 c 24
 566.799804688 313.25 512.298828125 395.017578125 420.360351562 400.744140625 c 0
 318.19140625 407.107421875 280.568359375 374.0546875 284.135742188 389.608398438 c 0
 289.244140625 411.879882812 376.086914062 473.920898438 508.905273438 472.330078125 c 0
 621.940429688 470.9765625 653.643554688 478.694335938 667.265625 462.786132812 c 0
 691.169921875 434.870117188 605.11328125 430.173828125 602.55859375 394.380859375 c 24
 598.301757812 332.33984375 657.80859375 324.35546875 653.643554688 241.6640625 c 0
 646.83203125 106.446289062 486.768554688 -9.681640625 360.76171875 -8.091796875 c 0
EndSplineSet
Validated: 33
EndChar

StartChar: ADLAM_SMALL_LETTER_LAAM
Encoding: 36 125220 37
Width: 1000
VWidth: 0
HStem: -16 78<238 542.791> 490 72<303.315 471.985>
VStem: 124 124<246.091 403.59> 544 92<62.9306 435.477>
LayerCount: 2
Back
Fore
SplineSet
190 212 m 28
 145 232 124.899875026 266.007498438 124 320 c 0
 122 440 266.034179688 565.817382812 420 562 c 0
 662 556 638 394 636 254 c 0
 634.867122448 174.698571334 651.674891147 63.3236574746 636 50 c 10
 556 -18 l 22
 537.8287373 -33.4455732946 451 -16 384 -16 c 24
 284 -16 112.181443299 -37.2082474227 128 -18 c 14
 212 84 l 26
 238 62 l 26
 544 62 l 26
 544 398 l 18
 544 462 418.18322733 489.241493575 376 490 c 0
 272.449328476 491.861968717 184 450 248 264 c 4
 257.836542717 235.412547729 218 199 190 212 c 28
EndSplineSet
Validated: 33
EndChar

StartChar: ADLAM_SMALL_LETTER_MIIM
Encoding: 37 125221 38
Width: 1000
VWidth: 0
HStem: -14 76<241.18 513> -10 92<241 426.562>
VStem: 167 362<217 351>
LayerCount: 2
Back
Fore
SplineSet
520 406 m 0x20
 518 438 485 494 377 502 c 0
 285.229689417 508.797800784 247 502 255 422 c 0
 261.387642773 358.123572268 325 339 391 323 c 4
 427.943359375 314.043945312 471 298 485 304 c 4
 536.504937828 326.073544784 522.374023438 368.021484375 520 406 c 0x20
421 580 m 0
 515 576 607 486 609 430 c 0
 612.722884985 325.75922042 528 351 529 288 c 24
 530 217 621 264 613 126 c 0
 606.739986042 18.0147592249 609 90 595 74 c 26
 513 -14 l 26xa0
 161 -10 l 26
 241 82 l 18x60
 244.401506997 85.9117330463 275 64 407 62 c 0xa0
 456.360314729 61.2521164435 533 22 521 118 c 0
 502.145088377 268.839292983 167 216 167 398 c 0
 167 501.80887463 298.779090391 585.200889771 421 580 c 0
EndSplineSet
Validated: 33
EndChar

StartChar: ADLAM_SMALL_LETTER_BA
Encoding: 38 125222 39
Width: 2650
VWidth: 0
Flags: W
VStem: 132 66<371.852 577.701> 296 58<180.806 368.363> 486 51<260.143 343.588>
LayerCount: 2
Back
Fore
SplineSet
358 186 m 0
 358.807157649 156.942324654 486 235.439453125 486 272 c 0
 486 333 452 371 408 375 c 0
 387.834960938 376.833007812 353.725585938 363.61328125 354 343 c 0
 355 268 356 258 358 186 c 0
201 -39 m 0
 91 0 164 434 132 567 c 0
 128.002672832 583.613891041 198 600 198 600 c 0
 216 511 196.944237961 344.643535407 210 246 c 0
 219 178 295.833947207 145.743269315 298 164 c 0
 305 223 291.726077152 314.849887248 296 364 c 0
 298 387 382 415 450 413 c 0
 501.601302065 411.482314645 537 373 537 324 c 0
 537 217.281015151 361 147 361 147 c 2
 354.494454699 140.457491373 368 75 368 75 c 2
 371.48327919 39.1719854768 547.44921875 79.6484375 570 62 c 0
 593 44 569 0 556 -9 c 0
 537.893554688 -21.53515625 521.090820312 12 499 12 c 0
 454 12 402 -6 359 8 c 24
 326 19 314 12 305 59 c 0
 300.541457343 82.2835005397 311.006801645 121.948592218 293 124 c 10
 293 124 214 153.223748416 214 133 c 3
 214 41.8291827346 220.556789189 10.4619478546 239 -21 c 24
 247 -35 216.799427437 -44.6016151823 201 -39 c 0
EndSplineSet
Validated: 33
EndChar

StartChar: ADLAM_SMALL_LETTER_DAALI
Encoding: 35 125219 40
Width: 1000
VWidth: 0
Flags: W
VStem: 408 56<163.803 428.822>
LayerCount: 2
Back
Fore
SplineSet
419 1 m 0
 390.036182173 2.44819089137 322.998914377 -11.6301523852 260 -12 c 0
 203.748126183 -12.3302377758 142 -12 121 9 c 0
 121 9 170.244902086 71.9625815953 181 63 c 4
 205 43 393.181294532 22.859026473 393 37 c 4
 392 115 179 177 150 210 c 0
 128.641764396 234.303638 176 311 116 367 c 9
 204 421 l 18
 228.289951151 436.653524075 209.482214981 317.403192127 207 269 c 0
 205 230 416 133 416 133 c 0
 402 187 409 239 408 386 c 0
 406.788207717 564.13346558 401 546 371 567 c 9
 460 610 l 18
 486.253633572 622.684339816 460 375 464 209 c 0
 466.102539062 121.744140625 511 62 512 -14 c 0
 512.291237206 -36.1340276699 439 0 419 1 c 0
EndSplineSet
Validated: 33
EndChar

StartChar: ADLAM_SMALL_LETTER_SINNYIIYHE
Encoding: 39 125223 41
Width: 1000
VWidth: 0
HStem: -11 50.9277<533.504 605.375>
VStem: 160.9 71.0995<92.6225 556.635> 426 70.1066<84.9546 347.944> 647.375 73.2815<104.137 359.961>
LayerCount: 2
Back
Fore
SplineSet
332 -6 m 4
 215 -5 162 25 158 316 c 0
 157.939576435 321.679815129 157.912011935 327.213589968 157.912011935 332.618973068 c 0
 157.912011935 388.90185339 160.900488065 431.264813277 160.900488065 479.631026932 c 0
 160.900488065 503.494881336 160.172964956 528.820184871 158 558 c 8
 157 568 129 569 138 574 c 26
 232 630 l 26
 230 148 l 26
 230 88 264 58 352 56 c 0
 353.348927427 55.9754740468 354.674997004 55.9632793024 355.978573864 55.9632793024 c 0
 416.745166895 55.9632793024 428.635452377 82.4622613982 428.635452377 121.637166837 c 0
 428.635452377 146.825104515 423.720021554 177.253254836 423.720021554 209.247457387 c 0
 423.720021554 213.473800886 423.805794158 217.727471465 424 222 c 0
 426 271 426 348 426 348 c 10
 410 362 l 26
 504 414 l 26
 498 382 l 18
 496.645751311 375.680172785 496.106609072 351.835556905 496.106609072 321.136768485 c 0
 496.106609072 283.830052443 496.902832459 236.400863925 498 198 c 0
 499.967767344 129.128142952 512.583832571 39.927717219 580.612219487 39.927717219 c 0
 581.726546129 39.927717219 582.85574072 39.9516510163 584 40 c 8
 652 43 642 137 646 204 c 0
 647 219.25 647.375 236.625 647.375 254.109375 c 0
 647.375 306.5625 644 360 644 360 c 10
 630 372 l 26
 726 420 l 26
 718 390 l 18
 715.542812708 381.154125749 714.655445457 370.255409905 714.655445457 357.867617818 c 0
 714.655445457 325.652873659 720.656463806 283.367920292 720.656463806 240.927483686 c 0
 720.656463806 233.270642504 720.461135786 225.608740475 720 218 c 0
 719.288007156 205.718123433 719.146314848 193.721397134 719.146314848 181.992902358 c 0
 719.146314848 174.238326615 719.208255789 166.601008565 719.208255789 159.076058132 c 0
 719.208255789 114.042261333 693.990234375 102.033203125 663 64 c 8
 627 20 589 -11 532 -11 c 24
 486 -11 448 50 434 50 c 0
 427.058823529 50 394.552734375 -6.0126953125 333.556640625 -6.0126953125 c 4
 333.040039062 -6.0126953125 332.521484375 -6.0087890625 332 -6 c 4
EndSplineSet
Validated: 1
EndChar

StartChar: ADLAM_SMALL_LETTER_PE
Encoding: 40 125224 42
Width: 1000
VWidth: 0
HStem: -8.49103 92.1425<257.731 320.145> -8 63.4189<335.144 555.167> 489.011 90.0293<317.619 434.29>
VStem: 171.137 74.9044<88.0089 467.799> 517.01 88.1508<304.845 409.044>
LayerCount: 2
Back
Fore
SplineSet
517 332 m 0xb8
 517.006511679 332.586051089 517.009758407 333.17108453 517.009758407 333.755089004 c 0
 517.009758407 422.856785469 441.433483948 488.006511679 355 489 c 0
 353.978670595 489.007043651 352.966767663 489.010564778 351.964206637 489.010564778 c 0
 259.907927906 489.010564778 246.614360285 459.323528882 246.614360285 401.031591694 c 0
 246.614360285 377.359132655 248.80671751 348.969191913 248.80671751 315.934244086 c 0
 248.80671751 305.425437099 248.584861652 294.446578052 248 283 c 0
 246.951953566 260.991024894 246.041207299 235.824145973 246.041207299 210.952890017 c 0
 246.041207299 146.303480683 252.194833177 83.6515026799 278.086176114 83.6515026799 c 0
 280.2502503 83.6515026799 282.552214259 84.0891960033 285 85 c 0
 302 91 516 212 517 332 c 0xb8
376 -8 m 0x78
 371.771065035 -7.98321851204 367.627178808 -7.97573042924 363.566663598 -7.97573042924 c 0
 329.882403228 -7.97573042924 301.935433454 -8.49103309149 278.767992784 -8.49103309149 c 0xb8
 182.732246127 -8.49103309149 168.825176303 0.363631228262 168.825176303 91.483252481 c 0
 168.825176303 128.632976465 171.136831235 179.456910462 171.136831235 248.929996355 c 0
 171.136831235 258.278288815 171.094975555 267.964249728 171 278 c 0
 170.893038741 290.12227597 170.839467467 301.69285544 170.839467467 312.736756538 c 0
 170.839467467 530.641641124 191.694981269 543.508506616 234.798553464 543.508506616 c 0
 240.570573409 543.508506616 246.741545894 543.277777778 253.314814815 543.277777778 c 0
 264.944444444 543.277777778 277.833333333 544 292 548 c 0
 340.662557198 561.625516015 334.386482621 579.039903187 413.297657402 579.039903187 c 0
 415.466453882 579.039903187 417.69959838 579.026748856 420 579 c 0
 534.83751202 578.026800746 605.160534967 498.442908023 605.160534967 400.160989755 c 0
 605.160534967 397.454423062 605.107202982 394.733676051 605 392 c 0
 596.489977723 185.868349283 332.27307841 114.742777001 332.27307841 68.7206962825 c 0
 332.27307841 66.0709036535 333.148973048 63.5043305826 335 61 c 0
 337.934929536 56.9644718879 349.584613556 55.4188736283 366.572912312 55.4188736283 c 0
 422.182795933 55.4188736283 534.997519331 71.9804172427 586.596633393 71.9804172427 c 0
 603.185040009 71.9804172427 613.446604008 70.2687250605 613.446604008 65.7447696328 c 0
 613.446604008 65.203990872 613.299976256 64.6230276094 613 64 c 10
 565 -38 l 26
 529 -6 l 18
 508 13 436 -8 376 -8 c 0x78
EndSplineSet
Validated: 33
EndChar

StartChar: ADLAM_SMALL_LETTER_BHE
Encoding: 41 125225 43
Width: 1000
VWidth: 0
Flags: H
LayerCount: 2
Back
Fore
SplineSet
394 10 m 24
 290 4 128 -24 128 38 c 0
 128 72 177.502248649 124.224887568 192 122 c 0
 231.586524573 115.924880885 137.992682703 73.1678171407 414 74 c 0
 568.130508126 74.464715096 530.6116345 99.3396140033 536 186 c 0
 538.989114328 234.073539453 537.770436355 264.528086408 520 283 c 4
 501.940429688 301.772460938 394 177 292 180 c 0
 199.773961497 182.712530544 115.057996855 256.741688681 116 340 c 0
 117.12009358 438.998714084 189.259112883 485.315792205 266 544 c 0
 300 570 375.963978951 546.423276963 444 552 c 0
 566 562 636.203451585 625.558580978 638 604 c 0
 642 556 486 480 344 482 c 0
 279.160459552 482.913232964 200 476 206 390 c 0
 211.595631081 309.795954511 272 254 366 260 c 0
 431.79031231 264.199381637 470.15682615 292.847021183 516 340 c 0
 551 376 518.040061055 437.926700102 562 462 c 0
 646 508 606 359 608 288 c 24
 611 195 631 127 574 54 c 24
 529 -4 467 14 394 10 c 24
EndSplineSet
Validated: 33
EndChar

StartChar: ADLAM_SMALL_LETTER_RA
Encoding: 42 125226 44
Width: 1000
VWidth: 0
Flags: H
LayerCount: 2
Back
Fore
SplineSet
476 -10 m 0
 212 -10 230 0 228 290 c 0
 227.08418453 422.793243205 267.809216558 486.333467756 200 516 c 25
 499.086914872 733.978598975 108.083777103 241.053962144 491 228 c 4
 574.974609375 225.137695312 621 286 627 394 c 0
 632.52734375 493.486328125 607 516 607 516 c 10
 727 604 l 18
 740.178710938 613.665039062 710.641601562 511.342773438 717 452 c 0
 723 396 591 146 447 146 c 0
 372.97265625 146 319.521484375 185.883789062 311 166 c 0
 293 124 338 72 476 68 c 0
 574.998817125 65.1304690688 702 114 730 82 c 0
 740.618067754 69.8650654238 688 -26 678 -14 c 0
 648.803099199 21.0362809614 554.492037813 -10 476 -10 c 0
EndSplineSet
Validated: 33
EndChar

StartChar: ADLAM_SMALL_LETTER_E
Encoding: 43 125227 45
Width: 1000
VWidth: 0
Flags: H
LayerCount: 2
Back
Fore
SplineSet
504 52 m 0
 621 49 617 83 618 144 c 0
 618.868890353 197.002311549 562 226 508 226 c 24
 449 226 381.474423623 175.031466979 380 146 c 0
 376.146468614 70.1237949046 448.018345902 53.4354270282 504 52 c 0
300 92 m 0
 320 90 308.885742188 191.423828125 422 260 c 0
 495.492342991 304.555157253 578 390 576 420 c 0
 571.336073286 489.958900703 510 520 428 520 c 0
 270 520 238 478 234 314 c 0
 231.615323393 216.228259106 202.252929688 101.774414062 300 92 c 0
262 -28 m 0
 168 -28 149.116169637 135.985883138 150 250 c 0
 152 508 273.901157274 597.89286586 456 598 c 0
 548.653494072 598.054510794 654 555 654 468 c 0
 654 395.267613816 568 319.963867188 568 311 c 0
 568 293 688 310 688 134 c 0
 688 60.8358011046 688.422851562 -28 616 -28 c 0
 592 -28 602 -10 502 0 c 0
 426.449217131 7.55507828687 346 36 310 34 c 0
 279.781106267 32.3211725704 292.805843601 -28 262 -28 c 0
EndSplineSet
Validated: 33
EndChar

StartChar: ADLAM_SMALL_LETTER_FA
Encoding: 44 125228 46
Width: 1000
VWidth: 0
Flags: H
LayerCount: 2
Back
Fore
SplineSet
412 -70 m 6
 379.984117571 -109.503467836 585 73 588 198 c 4
 590.092357115 285.181546452 530.054540955 367.427845061 444 370 c 4
 332.070817192 373.345543386 305.055275299 317.799077259 306 246 c 4
 308 94 392 153 392 140 c 4
 392 125.83009434 318.142125354 72.4716785602 290 74 c 4
 227.061005908 77.4180436929 221.834994006 156.247953966 222 298 c 0
 222.243301142 507.01322359 334 598 484 602 c 0
 557.797880718 603.967943486 647.925256193 588.513691903 662 536 c 0
 664.133641633 528.039258343 639 438 592 438 c 0
 579.967750323 438 614 535 462 533 c 0
 386.946289062 532.012695312 300 554 300 428 c 0
 300 397.520498692 270 346 300 350 c 24
 383 361 357.003275638 443.795866061 488 446 c 0
 586.14453125 447.651367188 661.069638439 309.999026167 660 236 c 4
 657.924732002 92.430168123 396 -94 412 -70 c 6
EndSplineSet
Validated: 37
EndChar

StartChar: ADLAM_DIGIT_ZERO
Encoding: 80 125264 47
Width: 1000
VWidth: 0
HStem: -96.0158 96.0158<317.581 410.977> 588.008 74.0119<358.758 503.232>
VStem: 169.907 74.0933<107.203 418.543> 642 94.1557<182.679 399.093>
LayerCount: 2
Back
Fore
SplineSet
330 -96 m 0
 194 -94 172 73 170 216 c 0
 169.937672058 220.674595647 169.906665093 225.311314764 169.906665093 229.910210316 c 0
 169.906665093 520.453134467 293.664519519 660.031163971 462 662 c 0
 463.106609085 662.01301893 464.210209678 662.019512398 465.310795434 662.019512398 c 0
 633.284891036 662.019512398 731.032547326 510.763201611 736 322 c 0
 736.104270548 318.263638697 736.155689408 314.532713568 736.155689408 310.808164085 c 0
 736.155689408 100.212396582 571.766131849 -90 502 -90 c 0
 496.37704918 -90 493.888202096 -89.7497984413 493.888202096 -88.8897440755 c 0
 493.888202096 -82.255038968 642 -39.3278688525 642 205 c 0
 642 490.539204313 544.995077692 588.007640886 410.073709924 588.007640886 c 0
 409.383463019 588.007640886 408.69222374 588.00508988 408 588 c 0
 274 587 244 545 244 302 c 0
 244 167 259 0 382 0 c 0
 523 0 540 324 540 324 c 0
 540.091229197 324.010526446 540.182076729 324.015771136 540.272534172 324.015771136 c 0
 546.350716261 324.015771136 550.667640998 300.335937734 550.667640998 264.221207424 c 0
 550.667640998 148.233558578 506.140048445 -96.0157711361 332.423270024 -96.0157711361 c 0
 331.618290197 -96.0157711361 330.81053633 -96.0105264458 330 -96 c 0
EndSplineSet
Validated: 1
EndChar

StartChar: ADLAM_DIGIT_ONE
Encoding: 81 125265 48
Width: 1000
VWidth: 0
VStem: 246.281 86.7188
LayerCount: 2
Back
Fore
SplineSet
331 -48 m 0
 331 -72 281 -99 281 -99 c 26
 257 -74 l 18
 257 -74 246.28125 322.59375 246.28125 530.939453125 c 0
 246.28125 560.703125 246.5 586.625 247 607 c 0
 248 627 317 664 317 664 c 26
 333 637 l 18
 333 637 330.041420118 324.573964497 330.041420118 108.916249431 c 0
 330.041420118 44.2189349112 330.307692308 -11.7692307692 331 -48 c 0
EndSplineSet
Validated: 1
EndChar

StartChar: ADLAM_DIGIT_TWO
Encoding: 82 125266 49
Width: 1000
VWidth: 0
HStem: 430.023 57.3569<302.106 350.208>
VStem: 276 68.2839<560.612 680.254> 371.52 64.4798<-29.4746 385>
LayerCount: 2
Back
Fore
SplineSet
370 -37 m 0
 368.024465059 -8.49585300054 367.323293646 21.2229217356 367.323293646 51.251579794 c 0
 367.323293646 124.718175467 371.520228077 200.03961 371.520228077 263.966737444 c 0
 371.520228077 359.081763687 362.22927924 428.972682684 316 430 c 0
 315.340845665 430.015509514 314.681871739 430.023201314 314.023106203 430.023201314 c 0
 233.537065225 430.023201314 156.161700207 315.205879618 132.926931901 315.205879618 c 0
 131.828485371 315.205879618 130.851044084 315.462498473 130 316 c 0
 125.293570952 318.823857429 123.20903479 322.425241714 123.20903479 326.692304849 c 0
 123.20903479 354.157837317 209.571959647 409.202633484 239 462 c 0
 268 515 269 583 276 655 c 0
 276.954284165 667.40569415 312.513582529 696.203237131 333.14336945 696.203237131 c 0
 334.131657804 696.203237131 335.085683308 696.137147504 336 696 c 0
 342.027820778 694.936266922 344.283881348 686.329013429 344.283881348 673.833750411 c 0
 344.283881348 651.089168193 336.808800765 615.462314595 331 589 c 0
 323.103321835 552.148835229 300.579569659 517.607208459 300.579569659 499.559980599 c 0
 300.579569659 497.038426581 301.01926948 494.838869725 302 493 c 0
 304.212577676 488.851416858 309.484842833 487.380060263 316.378213775 487.380060263 c 0
 333.200271234 487.380060263 359.676306175 496.142254295 374.900031083 496.142254295 c 0
 375.994050115 496.142254295 377.02995932 496.097004068 378 496 c 0
 432.347826087 491.108695652 444.753308129 445.456521739 444.753308129 387.296128873 c 0
 444.753308129 338.441398866 436 280.760869565 436 231 c 0
 436 147 439 121 440 16 c 0
 440 -12 426 -22 402 -38 c 16
 396.615384615 -41.7692307692 388.041420118 -44.6686390533 381.117888029 -44.6686390533 c 0
 375.183431953 -44.6686390533 370.461538462 -42.5384615385 370 -37 c 0
EndSplineSet
Validated: 1
EndChar

StartChar: ADLAM_DIGIT_THREE
Encoding: 83 125267 50
Width: 1000
VWidth: 0
HStem: -101.744 90.8123<219.42 531.885> 271.597 64.3672<296.403 375.447>
VStem: 88 87.6328<23.4295 88.4538> 182.936 73.5943<381.517 652.559> 492.049 114.96<467.661 671.437>
LayerCount: 2
Back
Fore
SplineSet
350 -100 m 0
 236 -99 88 -84 88 30 c 0
 88 106 206 199 297 236 c 0
 403 279 468 275 508 398 c 0
 508.357843903 399.07353171 508.532573076 399.879434198 508.532573076 400.436632248 c 0
 508.532573076 401.089950784 508.292360243 401.401357339 507.825451511 401.401357339 c 0
 498.292823454 401.401357339 394.266035424 271.597065587 310.777462192 271.597065587 c 0
 304.380484718 271.597065587 298.104082518 272.359117603 292 274 c 0
 227.412618107 291.614740516 182.93591755 373.392131006 182.93591755 458.417123411 c 0
 182.93591755 460.276741193 182.957193391 462.137912495 183 464 c 0
 184.923905299 564.043075544 185.922457698 694.622796781 246.525563006 694.622796781 c 0
 248.922549586 694.622796781 251.412780163 694.418520856 254 694 c 0
 265.804256149 692.032623975 269.635141346 677.176255103 269.635141346 654.540466802 c 0
 269.635141346 612.674248546 256.530191699 544.195669274 256.530191699 481.433483448 c 0
 256.530191699 405.647748251 275.638145031 338.196923306 360 336 c 0
 360.883463668 335.976122604 361.764931881 335.964217938 362.644322959 335.964217938 c 0
 434.228248743 335.964217938 492.04859041 414.847341375 492.04859041 535.899623623 c 0
 492.04859041 537.921376777 492.032462022 539.954892583 492 542 c 0
 491.898065795 548.217986495 491.816912755 554.72690929 491.816912755 561.398610541 c 0
 491.816912755 618.750152021 497.813743686 688.130261689 548.156948009 688.130261689 c 0
 549.410282177 688.130261689 550.691102257 688.08725985 552 688 c 0
 594.683159126 684.994143723 607.008140484 647.29322714 607.008140484 602.490213432 c 0
 607.008140484 572.767019653 601.583602426 539.918012129 596 512 c 8
 574 407 552 333 466 270 c 0
 360 192 213 207 178 76 c 16
 176.395388535 70.0001484338 175.632812204 64.4480843381 175.632812204 59.3084926888 c 0
 175.632812204 -9.22121847073 311.209148714 -4.41859429531 394 -10 c 0
 408.227838044 -10.9360419766 423.997743352 -11.1711442876 440.115597636 -11.1711442876 c 0
 456.38455827 -11.1711442876 473.008022567 -10.9316131018 488.757971492 -10.9316131018 c 0
 535.061369178 -10.9316131018 573.814922941 -13.0018950028 573.814922941 -29.3153346213 c 0
 573.814922941 -31.3207729231 573.229271704 -33.5414565927 572 -36 c 0
 543.546513467 -92.9069730667 488.274997256 -101.743892939 426.701860538 -101.743892939 c 0
 401.71528986 -101.743892939 375.690992463 -100.288662837 350 -100 c 0
EndSplineSet
Validated: 1
EndChar

StartChar: ADLAM_DIGIT_FOUR
Encoding: 84 125268 51
Width: 1000
VWidth: 0
HStem: 0 64<177.921 499>
VStem: 88 66<87.7205 146.993>
LayerCount: 2
Back
Fore
SplineSet
88 81 m 0
 87 190 286 304 289 317 c 0
 327.822630375 485.231398291 273.882178485 686.42518199 294 692 c 10
 377 715 l 26
 363 348 l 18
 360.97678022 294.962738629 546 504 537 470 c 0
 508.425840008 362.053173364 350.518472427 293.893993694 333 285 c 0
 268 252 154 223 154 135 c 0
 154 43.0163057928 295 68 380 64 c 0
 458.003369273 60.3292532107 595.004137931 86.6496551724 580 62 c 10
 524 -30 l 26
 499 -6 l 30
 195 0 l 26
 143 1 88.4763379353 29.0791650474 88 81 c 0
EndSplineSet
Validated: 33
EndChar

StartChar: ADLAM_DIGIT_FIVE
Encoding: 85 125269 52
Width: 1000
VWidth: 0
HStem: -72 72<286.516 431.744>
VStem: 176 77<-29 89.0489>
LayerCount: 2
Back
Fore
SplineSet
335 476 m 0
 221.646484375 331.255859375 259 338 353 279 c 0
 398.580078125 250.391601562 444.785893964 239.833473083 490 275 c 0
 553 324 567 341 495 443 c 0
 403.975347856 571.951590537 400 559 335 476 c 0
435 672 m 10
 435 672 637 438 640 369 c 0
 641.785687331 327.929191379 434 201 434 201 c 26
 434 201 435.637695312 172.318359375 419 164 c 0
 379 144 253 112.097722286 253 66 c 0
 253 16 338.154028653 0 403 0 c 4
 563 0 611 165 625 202 c 4
 633.2616942 223.834477529 629.800426894 256.116328709 646 258 c 10
 689 263 l 26
 684 197 l 26
 684 197 579 36 472 -28 c 0
 424.418257094 -56.4601079063 397 -72 340 -72 c 0
 267.556640625 -72 176 -65 176 7 c 24
 176 101 341 135.989131719 341 182 c 0
 341 246 142 245 142 302 c 0
 142 324.227978401 229.491210938 410.662109375 282 486 c 4
 328 552 413.717889326 703.455997729 435 672 c 10
EndSplineSet
Validated: 33
EndChar

StartChar: ADLAM_DIGIT_SIX
Encoding: 86 125270 53
Width: 1000
VWidth: 0
HStem: 0 21G<246 297.5> 395 1<291.986 390>
VStem: 237 74<109.975 369.583> 594 68<157.194 312.018>
LayerCount: 2
Back
Fore
SplineSet
453 395 m 0
 278.739722046 395 310.648135134 338.003129219 311 198 c 0
 311.465316629 12.8556719243 339 65 337 34 c 0
 335.306366692 7.74868372409 316 0 279 0 c 0
 213 0 233.563241493 211.984487221 237 347 c 0
 244 622 211.337015562 620.044186743 213 640 c 0
 215 664 255.98369953 684.852670046 286 685 c 0
 364.44846743 685.385051086 269 486 316 486 c 0
 362.043457733 486 516 567 557 636 c 0
 572.44353065 661.990332069 594 688 615 688 c 0
 632.262676502 688 646 664 636 650 c 24
 594 589 561 558 498 519 c 24
 434 480 379 496 317 454 c 28
 298 441 291.986452274 396.613694606 315 396 c 0
 390 394 432.150140889 449 512 449 c 0
 591 449 661.533647757 408.602209784 662 253 c 0
 662.614405914 47.9984816998 381.274679748 -125.692991732 357 -99 c 0
 342.244363898 -82.7743658603 595 -13 594 218 c 0
 593.616257445 306.644530241 541 395 453 395 c 0
EndSplineSet
Validated: 33
EndChar

StartChar: ADLAM_DIGIT_SEVEN
Encoding: 87 125271 54
Width: 1000
VWidth: 0
HStem: 230 86<343.734 455.068>
LayerCount: 2
Back
Fore
SplineSet
347 621 m 28
 279 629 180 598 197 531 c 24
 227 413 302.0813277 316 425 316 c 4
 498 316 578 406 557 488 c 24
 533 582 443 610 347 621 c 28
384 230 m 4
 334 228 193 69 136 14 c 4
 111.554129719 -9.5881204466 138 -52 108 -70 c 24
 88 -82 51 -47 65 -28 c 24
 155 94 337 209 340 247 c 4
 349.89087047 372.284359285 113 357 120 483 c 24
 127 607 240 677 364 687 c 24
 486 697 631.719103702 646.247629383 631 524 c 4
 630 354 457.667580222 322.975334016 459 287 c 4
 461 233 649 175 704 56 c 24
 731 -2 693 -66 635 -94 c 24
 596 -113 653 -17 626 18 c 24
 549 117 508.90411658 234.996164663 384 230 c 4
EndSplineSet
Validated: 33
EndChar

StartChar: ADLAM_DIGIT_EIGHT
Encoding: 88 125272 55
Width: 1000
VWidth: 0
HStem: -47 75<301.503 502.682>
VStem: 167 72<81.4497 170.438> 573 72<75.7694 168.385>
LayerCount: 2
Back
Fore
SplineSet
427 28 m 4
 521.376953125 28.7666015625 573 37.8046875 573 102 c 4
 573 179 427.292195194 351.208292677 403 351 c 0
 389.962074465 350.88820671 238.991959411 216.13669002 239 147 c 0
 239.011883094 44.8236824954 342.997070312 27.3173828125 427 28 c 4
389 -47 m 0
 284.617475286 -48.5127902133 169 -13 167 91 c 24
 164 231 357 323 381 375 c 0
 402.791025228 422.213887994 127 571 185 631 c 0
 271.546299276 720.530654424 313.059457454 444.784779675 437 435 c 0
 513 429 691 719 731 671 c 0
 774.021153775 619.37461547 468.548836503 416.950845907 469 405 c 0
 470.841199106 356.228574647 646.821289062 264.7421875 645 160 c 4
 642.809570312 34.0029296875 527 -45 389 -47 c 0
EndSplineSet
Validated: 33
EndChar

StartChar: ADLAM_DIGIT_NINE
Encoding: 89 125273 56
Width: 1000
VWidth: 0
HStem: 647 74<286.516 440.45>
VStem: 232 1<107 307> 523 76<469.34 574.778>
LayerCount: 2
Back
Fore
SplineSet
523 507 m 0
 523 594.475585938 438.633789062 644.693359375 351 647 c 0
 313 648 220 634 187 573 c 24
 164 531 199 512 213 469 c 4
 228.374023438 421.78125 213 348 283 347 c 0
 392.025390625 345.442382812 523 400 523 507 c 0
241 -67 m 0
 189 -67 145.495634821 -25.0067348283 145 31 c 0
 143 257 232 277.890625 232 307 c 0
 232 332 115 385.537965662 115 521 c 0
 115 613 245 722 407 721 c 0
 512.040847184 720.351599709 596.81307375 637.972459977 599 533 c 0
 601 437 458.546625546 350.128316628 313 291 c 0
 249 265 233 175.066144301 233 107 c 0
 233 -69 321 26.0671305484 321 -41 c 0
 321 -62 274.241540277 -67 241 -67 c 0
EndSplineSet
Validated: 33
EndChar

StartChar: ADLAM_INITIAL_EXCLAMATION_MARK
Encoding: 94 125278 57
Width: 1000
VWidth: 0
HStem: 396 60<326.11 402.659> 586 43<198.309 292.332>
VStem: 193 61<122.492 300.239> 548 70<-24.9013 342.184>
LayerCount: 2
Back
Fore
SplineSet
318 0 m 0
 270 -38 191.271484375 84.4716796875 193 168 c 0
 199 458 406 456 406 456 c 1
 420 634 400 554 186 586 c 0
 158.7890625 590.069335938 188.63671875 624.967773438 216 629 c 0
 311 643 366.685377837 632.307571788 464 634 c 0
 694 638 722.379652306 703.057052184 722 678 c 0
 720 546 483.964942796 634.569220737 476 538 c 0
 462.053057365 368.903320158 620 474 618 208 c 0
 617.350589907 121.628457657 614 -94 656 -134 c 0
 683.143100765 -159.850572157 560 -128 560 -128 c 18
 534.350194553 -126.39688716 564 56 548 172 c 24
 537 251 568.948530981 361.134910349 490 368 c 4
 444 372 536 30 418 32 c 4
 379.952869398 32.6448666204 497.875884179 402.342429747 352 396 c 0
 306 394 248 326 254 198 c 0
 257.792999514 117.082677042 343.718615278 20.3605704285 318 0 c 0
EndSplineSet
Validated: 33
EndChar

StartChar: ADLAM_INITIAL_QUESTION_MARK
Encoding: 95 125279 58
Width: 1000
VWidth: 0
Flags: W
HStem: 57.0039 62.9961<265.781 379.718> 418 83<372.953 495.114> 634 61<352.686 558.104>
VStem: 154 58<171.784 314.146> 217 61<527.504 583.377> 542 70<-13.0248 372.606> 604 51<512.795 594.799>
LayerCount: 2
Back
Fore
SplineSet
296 64 m 4xfc
 212 64 154 145 154 222 c 4
 154 390 348 501 479 501 c 4
 481 501 484 501 486 501 c 4
 501 501 521 498 540 498 c 4
 573 498 604 506 604 548 c 4
 604 613 519 633 450 634 c 4
 447 634 444 634 441 634 c 4
 287 634 281 584 278 558 c 4
 275 535 247 520 239 520 c 4
 239 520 238 520 238 520 c 4
 228 524 217 543 217 556 c 4
 217 560 218 564 220 566 c 4
 296 642 343 695 460 695 c 4
 553 695 653 633 655 572 c 4
 655 571 655 570 655 570 c 4xfa
 655 499 570 470 570 454 c 4
 570 428 608 464 612 206 c 4
 612 203 612 199 612 196 c 4
 612 151 609 102 609 61 c 4
 609 20 612 -14 624 -32 c 14
 646 -66 l 30
 578 -110 l 30
 550 -84 l 22
 542 -76 542 93 542 220 c 4
 542 237 543 255 543 272 c 4
 543 346 531 413 412 418 c 4
 407 418 402 418 397 418 c 4
 282 418 212 362 212 270 c 4
 212 269 212 269 212 268 c 4
 213 139 270 124 386 120 c 4
 393.020758716 119.694749621 395.848516708 116.128276458 395.848516708 110.836478581 c 4
 395.848516708 98.7923507995 381.2002428 77.8107435581 368 66 c 4
 360.471698113 59.1886792453 352.043787825 57.0039159843 343.269128207 57.0039159843 c 4
 327.567105732 57.0039159843 311 64 296 64 c 4xfc
EndSplineSet
Validated: 1
EndChar

StartChar: NameMe.45
Encoding: 45 -1 59
Width: 1176
VWidth: 0
Flags: HW
LayerCount: 2
Back
Fore
SplineSet
740 -34 m 4
 589.948312512 -33.3078253103 493.168353127 103.087403023 490 252 c 4
 488 346 488.549256429 466.632086517 466 492 c 4
 450 510 525.599568968 548 572 548 c 4
 612 548 503.892831692 35.0492344688 802 44 c 4
 959.250618014 48.7215013965 955.783192617 67.9293932802 964 298 c 4
 970 466 948 448 920 466 c 4
 906.436404638 474.719454161 1046.0859783 569.828043409 1060 542 c 4
 1060 542 1059.06791084 409.994816089 1058 300 c 4
 1056 94 916.559570312 -34.814453125 740 -34 c 4
EndSplineSet
Validated: 33
EndChar

StartChar: ADLAM_SMALL_LETTER_O
Encoding: 46 125230 60
Width: 1000
VWidth: 0
Flags: W
HStem: 148 79<295.094 473.629> 604 68<355.59 535.805>
VStem: 128 90<304.025 448.41>
LayerCount: 2
Back
Fore
SplineSet
526 234 m 26
 522 168 l 26
 484 102 l 26
 466 148 l 18
 459 166 423 148 334 148 c 0
 200 148 126 248 128 342 c 0
 132 527 285 667 470 672 c 0
 631 676 761 542 760 384 c 0
 758 153 482 23 406 -34 c 0
 361 -68 683 150 672 360 c 0
 665 491 573 605 442 604 c 0
 331 603 220 560 218 402 c 0
 216.788009811 306.252775081 262 225 396 227 c 0
 446.994561714 227.761112861 529 285 526 234 c 26
EndSplineSet
Validated: 37
EndChar

StartChar: ADLAM_SMALL_LETTER_DHA
Encoding: 47 125231 61
Width: 1000
VWidth: 0
Flags: HW
LayerCount: 2
Back
Fore
SplineSet
550 72 m 4
 688.164035539 72.7358097656 722 104 720 292 c 4
 718.64888698 419.004623906 659.038842212 519.997900981 492 526 c 4
 351.901464889 531.034070334 262 476 264 318 c 4
 265.898582078 168.012015861 402.99868331 71.2171261939 550 72 c 4
530 -10 m 4
 328.052768389 -4.78947782997 188 98 188 270 c 4
 188 445.345373478 354.209960938 594.447265625 500 594 c 4
 602.019125865 593.687018068 668 546 710 550 c 4
 743.226292554 553.164408815 693.965449161 635.554787759 714 636 c 14
 804 638 l 30
 802 134 l 22
 801.872923392 101.976694748 596.008328449 -11.7031075695 530 -10 c 4
EndSplineSet
Validated: 33
EndChar

StartChar: ADLAM_SMALL_LETTER_YHE
Encoding: 48 125232 62
Width: 1000
VWidth: 0
Flags: H
LayerCount: 2
Back
Fore
SplineSet
329 -18 m 4
 212.053589825 -30.0728007827 132.07421875 158.014648438 135 325 c 4
 136.513611225 411.387491378 258.560514231 478.483547596 375 527 c 0
 399 537 259.857468185 558.712659076 249 593 c 0
 247.46067276 597.861118354 319.254744148 662.282169208 329 655 c 0
 511 519 695 533 679 529 c 0
 669.445204469 526.611301117 648.014376176 481.797796734 619 465 c 0
 581 443 537 473 461 469 c 0
 349.137003005 463.112473842 206.68877067 554.025650575 211 259 c 0
 213.119927622 113.929307209 297 72 469 70 c 0
 546.615234375 69.09765625 639 103 673 73 c 0
 687.846032105 59.9005599074 623 -49 603 -27 c 0
 581.888359669 -3.77719563589 562.450620749 6.09995170164 329 -18 c 4
EndSplineSet
Validated: 33
EndChar

StartChar: ADLAM_SMALL_LETTER_WAW
Encoding: 49 125233 63
Width: 1000
VWidth: 0
Flags: H
LayerCount: 2
Back
Fore
SplineSet
317 -69 m 0
 215.774896513 -67.8021829119 177 -2 177 149 c 0
 177 386.065391823 427 569 619 567 c 0
 656.200132294 566.612498622 701 573 709 537 c 1
 691 513 689 370.074740252 689 263 c 0
 689 159 679 43 731 0 c 1
 731 -29 713.286233185 -57.9428744395 685 -57 c 0
 595 -54 591.89257731 98.9686587391 593 223 c 4
 595 447 709.079627326 487.803682445 605 489 c 0
 431 491 273 457 273 269 c 0
 273 211.615333058 362 281 419 281 c 0
 471.611785752 281 533 271 533 227 c 1
 529 215 503 161 483 159 c 1
 437 165 414.006979141 190.390222471 369 191 c 1
 292.139402509 192.041346611 271.879744558 193.041199399 275 117 c 0
 278.724267142 26.2389242998 401 -15 401 -15 c 0
 411.062048165 -52.7326806194 363.170353141 -69.546343111 317 -69 c 0
EndSplineSet
Validated: 33
EndChar

StartChar: ADLAM_ALIF_LENGTHENER
Encoding: 68 125252 64
Width: 1110
VWidth: 0
Flags: HW
LayerCount: 2
Back
Fore
SplineSet
546 470 m 4
 515.775270943 481.334273396 527.62811126 602.373102891 502 618 c 4
 461 643 306 596 226 690 c 4
 203.315847967 716.653878639 302.173828125 691.182617188 366 696 c 0
 525 708 521.968780458 647 538 647 c 0
 554 647 556 710 608 708 c 0
 638.977096414 706.808573215 694 682 676 666 c 4
 659.540017179 651.368904159 573.233490572 651.036755308 562 572 c 4
 556.376195826 532.431957319 570 461 546 470 c 4
EndSplineSet
Validated: 33
EndChar

StartChar: ADLAM_SMALL_LETTER_SHA
Encoding: 67 125251 65
Width: 1000
VWidth: 0
Flags: H
LayerCount: 2
Back
Fore
SplineSet
686 -128 m 0
 665.269834131 -101.05078437 646.147361055 -80.7149178199 450 -90 c 0
 112 -106 156 20 160 226 c 4
 162.74609375 367.412109375 200.730902588 557.593943007 146 588 c 0
 128 598 268.677560781 690.040653647 270 668 c 2
 297.560617193 685.78104335 284 546 282 468 c 24
 281 406 245.517578125 340.434570312 262 280 c 0
 268 258 282.43359375 263.641601562 329 252 c 0
 345 248 476 408 480 480 c 0
 483.106321099 535.91377978 434 534.987806691 434 576 c 0
 434 618 530.903058516 668.639494678 534 668 c 0
 562.907582808 662.030805731 571.111250855 614.838468904 570 574 c 0
 566 427 363.896484375 263.905273438 384 242 c 0
 408.76953125 215.010742188 427.959960938 207.87890625 478 208 c 0
 611.040039062 208.321289062 718.0546875 387.982421875 719 474 c 0
 720.041015625 568.764648438 713.331650012 554.298884755 692 586 c 0
 684.480342928 597.175015308 807.92254768 703.735234662 836 690 c 0
 853.913252212 681.236999715 816 590.02734375 816 516 c 0
 816 408 601.881835938 129.662109375 416 130 c 0
 319.916861548 130.17465715 265.140075689 190.891601576 256 170 c 0
 228 106 256 13 508 14 c 0
 622.476170613 14.4542705183 798.898126111 30.6112433324 802 12 c 0
 804 0 706 -154 686 -128 c 0
EndSplineSet
Validated: 33
EndChar

StartChar: ADLAM_SMALL_LETTER_NUN
Encoding: 50 125234 66
Width: 1000
VWidth: 0
Flags: H
LayerCount: 2
Back
Fore
SplineSet
585 33 m 0
 507 35 528 102.870117188 528 157 c 4
 528 208 528 233 533 284 c 25
 617 345 l 25
 612 283 605.807323143 247.163882032 605 185 c 4
 604 108 637 103 669 81 c 1
 645 45 623.00066567 32.0256239572 585 33 c 0
299 -25 m 24
 231 6 163 43 163 99 c 0
 163 284.607421875 451 415 511 413 c 0
 549.579091253 411.714030292 625 410 605 443 c 24
 564 510 560 547 431 545 c 0
 358.980882682 543.883424538 263 571 285 433 c 0
 288.46708642 411.251912457 297 387 249 389 c 0
 219.904805735 390.212299761 211.94921875 428.625 214 453 c 0
 219.912109375 523.263671875 342 617 459 621 c 24
 561 625 668 560.63671875 668 469 c 0
 668 425 559 356 523 352 c 0
 314.19921875 328.799804688 245.382439527 274.974657766 243 163 c 0
 241 69 345 47 347 11 c 1
 354 -11 320 -35 299 -25 c 24
EndSplineSet
Validated: 33
EndChar

StartChar: ADLAM_SMALL_LETTER_KAF
Encoding: 51 125235 67
Width: 1000
VWidth: 0
Flags: HW
LayerCount: 2
Back
Fore
SplineSet
411 -11 m 0
 389.406786822 -21.842900701 92.7696785546 -19.9272968971 95 -17 c 10
 159 67 l 26
 159 67 353.14066532 -5.73006232014 415 73 c 0
 437 101 407 273 407 273 c 18
 403.477635783 361.059105431 111 294 91 319 c 0
 84.859816826 326.675228967 149 397 167 399 c 1
 196.867109471 398.991140631 420.232497839 355.095073466 419 397 c 10
 415 533 l 2
 149 535 l 26
 213 613 l 18
 221.851866405 623.788212181 371.994227566 603.316570459 473 605 c 0
 533 606 691.233899325 678.744437985 677 621 c 0
 655.327360247 533.077894212 519.696595575 611.157209931 493 537 c 0
 475 487 462.708984375 444.849609375 489 381 c 0
 503 347 693.538568191 376.986632371 733 493 c 0
 756.908145359 563.287983222 711 697 747 697 c 10
 833 697 l 26
 833 697 809 304 813 53 c 24
 813 25 845 -11 845 -11 c 26
 845 -11 799 -49 765 -47 c 24
 732 -45 693 0 693 0 c 26
 693 0 723 9 725 25 c 24
 744 160 765 361 745 395 c 4
 727.731516739 424.356421544 501.694761162 304.937364993 499 249 c 4
 490.714616674 77.0135109285 428.351728893 -2.2869348427 411 -11 c 0
EndSplineSet
Validated: 33
EndChar

StartChar: ADLAM_SMALL_LETTER_YA
Encoding: 52 125236 68
Width: 1000
VWidth: 0
Flags: H
LayerCount: 2
Back
Fore
SplineSet
343 -13 m 0
 249.703265663 -12.1518478697 138.397374379 -36.7371118165 105 0 c 0
 95 11 135.372446517 83.744893034 147 107 c 0
 163 139 272.723632812 44.685546875 403 49 c 4
 523.200195312 52.9814453125 565.553475319 40.9461541794 563 149 c 0
 559.735713045 287.132824989 468 290 389 295 c 0
 334.987835478 298.418491425 206.362625728 290.029115934 251 309 c 2
 181.110602911 316.09022869 309 373 411 377 c 0
 496.933947763 380.369958736 542.19511433 402.951759023 539 463 c 0
 534.518968197 547.215477042 460.019159498 554.196770705 393 553 c 4
 281 551 263 519 203 451 c 0
 186.780146191 432.617499016 146 487 165 501 c 24
 258 570 320 619 435 623 c 24
 512 625 599 591.550636836 599 515 c 0
 599 389 525.178697264 381.47463193 523 351 c 4
 521.000913214 323.037678194 642.401523057 357.997180483 641 187 c 4
 640.183538322 87.3850531271 563 -15 343 -13 c 0
EndSplineSet
Validated: 33
EndChar

StartChar: ADLAM_SMALL_LETTER_U
Encoding: 53 125237 69
Width: 1000
VWidth: 0
Flags: HW
LayerCount: 2
Back
Fore
SplineSet
535 51 m 0
 623 107 671 115 673 309 c 0
 673.908203125 397.052734375 703 501 665 505 c 0
 641.048828125 507.521484375 577.529190353 414.018861162 575 315 c 0
 571.748511894 187.70287942 467 88 463 72 c 0
 455.14453125 40.5791015625 519.489472266 41.1296641693 535 51 c 0
507 307 m 24
 506 399 493 513 401 517 c 24
 308 521 274.841329643 409.987146989 273 317 c 0
 271 216 302.040869684 97.9248356251 405 93 c 0
 487.003744812 89.0775216087 508 215 507 307 c 24
467 0 m 0
 349.351769398 0 202.203858628 104.917704776 203 253 c 0
 204 439 289.548828125 585 407 585 c 0
 457 585 639 483 595 483 c 0
 587.047592083 483 738.119780049 634.441653724 739 609 c 0
 748.262036644 341.292447007 789 0 467 0 c 0
EndSplineSet
Validated: 37
EndChar

StartChar: ADLAM_SMALL_LETTER_JIIM
Encoding: 54 125238 70
Width: 1306
VWidth: 0
Flags: HW
LayerCount: 2
Back
Fore
SplineSet
242 354 m 0
 242 514.85546875 329.374285175 583.457053588 410 580 c 0
 441.986231249 578.62850065 465 558 500 540 c 25
 548 562 587 590 622 590 c 0
 746.739729036 590 707.204101562 409.015625 707 286 c 4
 706.814453125 174.385742188 702.688436282 33.1484125092 724 0 c 0
 733.537337173 -14.8345560673 695 -38 680 -38 c 0
 638 -38 645.791367654 150.525220959 648 272 c 0
 652 492 664 544 588 542 c 0
 559.831746255 541.258730165 547 535 520 525 c 25
 535 464 552 423.348632812 552 360 c 0
 552 315 502 236 448 168 c 24
 440 158 415.784222922 185.418747254 426 194 c 0
 476 236 497 246 498 368 c 0
 498.621310068 443.799828323 454.002701468 522.767704055 378 522 c 0
 279 521 305 483 302 396 c 0
 300.093637095 340.715475749 302 278 317 225 c 24
 325 195 368.57574897 186.908987645 368 166 c 0
 367.668548812 153.962967969 334.17847189 160.943882291 312 162 c 0
 291 163 242 166 242 354 c 0
EndSplineSet
Validated: 33
EndChar

StartChar: ADLAM_SMALL_LETTER_CHI
Encoding: 55 125239 71
Width: 1000
VWidth: 0
Flags: H
LayerCount: 2
Back
Fore
SplineSet
498 74 m 0
 665.278716345 74 682 49.9743631875 682 148 c 0
 682 238 618.230564769 420 488 420 c 0
 447 420 320.815667037 307.03696569 322 214 c 0
 324.214933203 40.0027620022 414 74 498 74 c 0
478 -18 m 0
 370 -16 236 39 236 154 c 0
 236 291.364478669 446 420 446 438 c 0
 446 514.23647421 264 470 264 510 c 0
 264 528.418745425 302 574 340 572 c 24
 425 568 459 496 544 496 c 4
 621.252249331 496 732 646 770 602 c 0
 799.809652541 567.483560216 620.379432836 492.385935324 620 478 c 0
 618.85527418 434.598506906 750 391 750 248 c 0
 750 122.964005183 694 38 606 -38 c 0
 593.403954786 -48.8784026847 604 -3 588 0 c 24
 545 7 521.455177101 -18.8047255019 478 -18 c 0
EndSplineSet
Validated: 33
EndChar

StartChar: ADLAM_SMALL_LETTER_HA
Encoding: 56 125240 72
Width: 1000
VWidth: 0
Flags: HW
LayerCount: 2
Back
Fore
SplineSet
690 238 m 0
 690 57.2490234375 538 -24 378 -16 c 0
 284.495229295 -11.3247614647 207.339743293 0 138 0 c 0
 124 0 184 82 232 78 c 0
 280 74 219.99576201 37.8200745299 386 34 c 4
 608.541015625 28.87890625 604 50 608 228 c 4
 610.808369645 352.972449204 565.442418599 459.080689467 390 464 c 0
 287.961702707 466.861098671 292 441 246 442 c 0
 214.622703766 442.682115136 236 493 248 522 c 24
 262 557 272 595 310 596 c 24
 339 597 306.449483098 542.85670229 328 524 c 0
 344 510 549.435546875 539.151367188 630 442 c 0
 698 360 690 328 690 238 c 0
EndSplineSet
Validated: 33
EndChar

StartChar: ADLAM_VOWEL_LENGTHENER
Encoding: 69 125253 73
Width: 1000
VWidth: 0
Flags: HW
LayerCount: 2
Back
Fore
SplineSet
253 521 m 0
 219.623361463 521 189 543.399404767 189 577 c 0
 189 665 310 716 400 716 c 0
 419.697715604 716 436 706 436 683 c 0
 436 665.900248758 420.540800385 635.406561711 409 638 c 2
 405.029411765 631.382352941 408 656 320 658 c 0
 291.847014296 658.639840584 258 648.784887979 258 621 c 0
 258 575 317 594 360 594 c 0
 413.150390625 594 443 593 496 593 c 24
 519 593 555.871681416 604.075221239 555 591 c 10
 542 533 l 30
 524 488 l 26
 496 533 l 22
 489.819864721 542.932360271 349 521 253 521 c 0
EndSplineSet
Validated: 33
EndChar

StartChar: ADLAM_GEMINATION_MARK
Encoding: 70 125254 74
Width: 1000
VWidth: 0
Flags: H
LayerCount: 2
Back
Fore
SplineSet
104 652 m 26
 104 652 131 712 152 717 c 0
 249.499257178 740.214108852 300 710 410 718 c 4
 423.003914312 718.945739223 592 732 592 732 c 26
 592 732 557 665 516 650 c 24
 456 627 437 645 352 641 c 0
 276.083984375 637.427734375 104 652 104 652 c 26
EndSplineSet
Validated: 33
EndChar

StartChar: ADLAM_HAMZA
Encoding: 71 125255 75
Width: 1000
VWidth: 0
Flags: H
LayerCount: 2
Back
Fore
SplineSet
326 545 m 0
 285 545 257 582 257 621 c 0
 257 680.56135796 355.735671698 734.926101621 374.267265619 734.926101621 c 0
 375.648280335 734.926101621 376.583877309 734.624184037 377 734 c 2
 377.562793285 734.562793285 378.248761789 734.826446748 379.029846534 734.826446748 c 0
 386.57599063 734.826446748 403 710.217821266 403 693 c 0
 403 679.284150281 394.638909622 656.371101147 389.384674777 656.371101147 c 0
 388.892745564 656.371101147 388.428050094 656.571949906 388 657 c 2
 387.52173913 655.947826087 387.189867675 655.472060491 386.944875154 655.472060491 c 0
 384.628582231 655.472060491 390.07826087 698 353 698 c 0
 329 698 309 678 309 654 c 0
 309 622 335 595 364 595 c 0
 396 595 454 644 454 696 c 0
 454 736 434 736 434 749 c 0
 434 768 463 780 472 780 c 0
 484 780 504 758 504 736 c 0
 504 676 377 545 326 545 c 0
EndSplineSet
Validated: 524289
EndChar

StartChar: ADLAM_CONSONANT_MODIFIER
Encoding: 72 125256 76
Width: 1000
VWidth: 0
Flags: H
LayerCount: 2
Back
Fore
SplineSet
205 696 m 3
 205 709 235 748 259 748 c 3
 297 748 353 619 365 619 c 0
 374.591836735 619 459.626405664 748.724698042 480.671718417 748.724698042 c 0
 481.56726364 748.724698042 482.346938776 748.489795918 483 748 c 0
 484.301542871 747.059996815 484.907703516 745.539637035 484.907703516 743.522471379 c 0
 484.907703516 717.642759709 385.132304752 609.987688878 374 597 c 0
 366 587 350 518 322 518 c 3
 309 518 297 578 269 626 c 0
 250 658 205 666 205 696 c 3
EndSplineSet
Validated: 524289
EndChar

StartChar: ADLAM_GEMINATE_CONSONANT_MOD
Encoding: 73 125257 77
Width: 1000
VWidth: 0
Flags: H
LayerCount: 2
Back
Fore
SplineSet
219 608 m 0
 187 634 140 668 140 672 c 0
 139.988789749 672.425989521 139.983234636 672.851225024 139.983234636 673.27566988 c 0
 139.983234636 710.713434605 183.20178451 742 201 742 c 3
 238 742 308 606 311 606 c 0
 316.723076923 606 407.05964497 747.022485207 436.214150205 747.022485207 c 0
 437.624852071 747.022485207 438.892307692 746.692307692 440 746 c 0
 442.953009368 744.182763466 444.306443623 741.514140177 444.306443623 738.112805192 c 0
 444.306443623 711.566822512 361.866826696 640.390322012 314 581 c 0
 292.359335254 554.441002357 286.200269538 495.951206716 264.113544008 495.951206716 c 0
 263.746802079 495.951206716 263.375668675 495.967333159 263 496 c 0
 237 498 251 581 219 608 c 0
334 498 m 0
 333.401375088 499.047593597 333.116307988 500.414344252 333.116307988 502.0663145 c 0
 333.116307988 522.491210274 376.693812105 586.51692136 410 630 c 0
 444.760578066 676.973754143 495.408197896 746.895457502 516.337226531 746.895457502 c 0
 517.685562156 746.895457502 518.910551492 746.605249171 520 746 c 0
 524.349447959 743.514601166 526.261794576 739.919235384 526.261794576 735.446294033 c 0
 526.261794576 711.124234498 469.718527478 660.854478353 441 622 c 0
 407.038069715 576.717426286 364.734561654 492.001939454 342.485120488 492.001939454 c 0
 339.184535546 492.001939454 336.325262945 493.866199209 334 498 c 0
EndSplineSet
Validated: 524289
EndChar

StartChar: ADLAM_NUKTA
Encoding: 74 125258 78
Width: 1000
VWidth: 0
Flags: H
LayerCount: 2
Back
Fore
SplineSet
325 580 m 26
 321 661 l 26
 404 705 l 18
 404 705 408.6656 681.1536 408.6656 664.440384 c 0
 408.6656 657.9408 407.96 652.52 406 650 c 0
 379 616 325 580 325 580 c 26
EndSplineSet
Validated: 524289
EndChar

StartChar: NameMe.66
Encoding: 66 -1 79
Width: 1000
VWidth: 0
Flags: H
LayerCount: 2
Back
Fore
SplineSet
307 111 m 3
 359 111 425 220 425 340 c 3
 425 462 376 552 274 552 c 3
 193.35483871 552 185.550468262 494.767950052 185.550468262 411.24859857 c 0
 185.550468262 391.203954214 186 369.64516129 186 347 c 3
 186 199 188 150 216 150 c 3
 239 150 317 264 317 307 c 3
 317 388 227 408 227 408 c 26
 227 408 251 459 324 459 c 3
 369 459 390 409 390 364 c 3
 390 279 254 160 254 137 c 3
 254 114 285 111 307 111 c 3
264 38 m 3
 133 38 96 103 96 328 c 3
 96 539 149 617 350 617 c 3
 443 617 498 527 498 434 c 3
 498 242 358 111 358 111 c 26
 491 106 l 26
 490 26 l 26
 462 -12 l 26
 428 42 l 26
 428 42 328 38 264 38 c 3
EndSplineSet
Validated: 524289
EndChar

StartChar: NameMe.65
Encoding: 65 -1 80
Width: 1000
VWidth: 0
Flags: H
LayerCount: 2
Back
Fore
SplineSet
119 462 m 7
 119 591.268554688 98 584.776251584 98 602 c 3
 98 613 131 632 154 632 c 3
 189 632 192.554323465 586.791128949 188 554 c 0
 163 374 181 381 288 342 c 0
 340.915192327 322.713154198 444 284 444 284 c 10
 444 284 450 363 450 414 c 7
 450 512 444 538 366 538 c 7
 278 538 292 490 254 490 c 3
 241 490 244 480.1953125 244 516 c 3
 244 546.034179688 322 582 389 582 c 31
 473 582 513 498 513 414 c 27
 513 246 497 150 507 -16 c 0
 508.760336636 -45.2215881657 448 -72 448 -62 c 3
 448 32 430 178 430 178 c 26
 386 134 l 26
 72 132 l 26
 72 132 76 161 86 176 c 24
 100 198 132 224 132 224 c 26
 132 224 142.003182284 197.961813851 154 199 c 0
 258 208 392 194 392 194 c 26
 457 192 342 268 254 288 c 0
 169.567908968 307.189111598 119 295.975001736 119 462 c 7
EndSplineSet
Validated: 33
EndChar

StartChar: NameMe.64
Encoding: 64 -1 81
Width: 1000
VWidth: 0
Flags: H
LayerCount: 2
Back
Fore
SplineSet
305 486 m 3
 305 533 291 591 244 591 c 3
 204.887640449 591 198.295669739 562.434793587 198.295669739 529.484815644 c 0
 198.295669739 512.730589572 200 494.842696629 200 479 c 3
 200 470.219512195 199.935752528 461.396192742 199.935752528 452.730619115 c 0
 199.935752528 402.181439619 202.12195122 357 232 357 c 3
 261 357 305 464 305 486 c 3
122 447 m 3
 122 639 235 677 304 677 c 3
 339 677 385 620 385 578 c 3
 385 452.254545455 260.563001653 363.933752066 260.563001653 345.617488493 c 0
 260.563001653 344.997765289 260.705454545 344.458181818 261 344 c 0
 264.658536585 338.512195122 292.945270672 336.772159429 327.349878847 336.772159429 c 0
 386.984533016 336.772159429 465 342 465 342 c 10
 465 342 495 386 495 461 c 3
 495 572 470 537 470 556 c 3
 470 573 588 657 588 657 c 18
 588 657 588.950138504 639.354570637 588.950138504 613.165038635 c 0
 588.950138504 568.268698061 586.157894737 498.263157895 571 449 c 8
 554 395 493 362 493 335 c 3
 493 308 566 289 566 182 c 3
 566 81 500 -9 289 -9 c 3
 248.101123596 -9 199.324453983 -13.0398939528 158.01250977 -13.0398939528 c 0
 107.405378109 -13.0398939528 68 -6.97752808989 68 20 c 3
 68 30 127 113 146 113 c 3
 163 113 233 65 395 65 c 3
 419.414634146 65 437.279000595 64.2082093992 450.35048824 64.2082093992 c 0
 486 64.2082093992 486 70.0975609756 486 114 c 3
 486 253 412 262 251 262 c 3
 149 262 122 277 122 447 c 3
EndSplineSet
Validated: 524289
EndChar

StartChar: NameMe.63
Encoding: 63 -1 82
Width: 1000
VWidth: 0
Flags: HW
LayerCount: 2
Back
Fore
SplineSet
352 248 m 3
 352 353 494 424 494 424 c 26
 494 424 424 345 424 284 c 27
 424 245 421 188 390 188 c 3
 361 188 352 219 352 248 c 3
494 -14 m 27
 412 -14 366 -26 284 -26 c 27
 237 -26 202 15 202 62 c 27
 202 151 212 201 212 290 c 27
 212 359 204 397 204 466 c 27
 204 495 166 501 166 530 c 3
 166 555 199 573 232 573 c 3
 304 573 266 478 294 478 c 0
 320 478 392 600 478 600 c 27
 568 600 630 516 630 426 c 27
 630 309 453 182 453 182 c 26
 453 182 554 299 554 370 c 3
 554 453 535 530 436 530 c 3
 289 530 282 301 282 176 c 3
 282 72.6076555024 287.936402555 57.2719489023 345.738216905 57.2719489023 c 0
 370.117213434 57.2719489023 403.722488038 60 450 60 c 3
 572 60 658 54 658 54 c 26
 604 -16 l 26
 604 -16 537 -14 494 -14 c 27
EndSplineSet
Validated: 524289
EndChar

StartChar: NameMe.62
Encoding: 62 -1 83
Width: 1530
VWidth: 0
Flags: HW
LayerCount: 2
Back
Fore
SplineSet
242 154 m 7
 242 486 587 588 750 588 c 7
 794.181444069 588 752 550 752 316 c 3
 752 33.936177435 804 58.0475920833 804 16 c 3
 804 -10 780 -30 754 -30 c 27
 691 -30 666 41 666 104 c 27
 666 145 666 210 666 210 c 26
 506 192 l 26
 506 192 414 195 414 234 c 7
 414 253 457 304 472 304 c 3
 495 304 505 276 578 276 c 3
 614 276 670 278 670 278 c 26
 678 520 l 26
 678 520 332 586.041282449 332 210 c 3
 332 51.6838605827 366 32 418 32 c 3
 442 32 472 5 472 0 c 3
 472 -27 425 -44 388 -44 c 7
 253.63284853 -44 242 63 242 154 c 7
EndSplineSet
Validated: 33
EndChar

StartChar: NameMe.61
Encoding: 61 -1 84
Width: 1000
VWidth: 0
Flags: H
LayerCount: 2
Back
Fore
SplineSet
570 498 m 27
 570 558 502 606 462 606 c 7
 415 606 418 559 418 522 c 27
 418 485 424 428 424 428 c 26
 424 428 570 435 570 498 c 27
192 -48 m 27
 106 -48 30 16 30 102 c 27
 30 264 326 394 326 394 c 26
 326 394 349 459 346 518 c 24
 345 531 312 550 318 562 c 24
 330 588 375 601 375 601 c 30
 375 601 330 606 300 606 c 7
 237.985295707 606 164 541 164 464 c 27
 164 424 202 408 202 368 c 27
 202 350 180 346 162 346 c 27
 120 346 86 382 86 424 c 3
 86 542 262 675 428 675 c 27
 501 675 543 667 605 629 c 24
 637 609 642 586 642 548 c 3
 642 415.863706727 450 410 430 368 c 0
 412.589017 331.4369357 396 166 421 125 c 0
 442.243079583 90.1613494834 474 86 518 86 c 27
 562 86 620 67.0113621693 620 36 c 3
 620 -1 602.987373428 -47.3161237674 574 -46 c 0
 551.896858003 -44.9964433794 551 0 524 10 c 24
 481 26 452 16 406 16 c 3
 335.317611812 16 332 135 332 220 c 27
 332 270 334 298 336 348 c 17
 234 308 120 274 120 140 c 7
 120 53 270 11.3630833845 270 -26 c 3
 270 -58 224 -48 192 -48 c 27
EndSplineSet
Validated: 33
EndChar

StartChar: NameMe.60
Encoding: 60 -1 85
Width: 1000
VWidth: 0
Flags: H
LayerCount: 2
Back
Fore
SplineSet
534 214 m 3
 550 214 679 324 679 408 c 3
 679 499 610 578 559 578 c 3
 486 578 486 560 486 407 c 3
 486 329 486 214 534 214 c 3
160 484 m 1048
238 -78 m 3
 137.980002 -78 162 129 162 266 c 3
 162 466.00999975 229.959960938 604 368 604 c 3
 403 604 433 564 448 564 c 3
 462 564 520 627 608 627 c 3
 697 627 730 529 730 440 c 3
 730 329 564 205 564 205 c 30
 774 198 l 26
 722 132 l 26
 722 132 712 153 700 154 c 24
 625 161 581.540534905 145.704955425 506 152 c 0
 410 160 416 250 416 326 c 3
 416 438 439 564 330 564 c 3
 198 564 232 383 232 258 c 27
 232 157 219 97 245 0 c 24
 254 -32 314 -50 314 -50 c 26
 314 -50 285.707441768 -78 238 -78 c 3
EndSplineSet
Validated: 33
EndChar

StartChar: NameMe.59
Encoding: 59 -1 86
Width: 1000
VWidth: 0
Flags: H
LayerCount: 2
Back
Fore
SplineSet
400 198 m 7
 435 198 473 219 473 254 c 7
 473 313 375 422 275 422 c 31
 228 422 182 393 182 336 c 7
 182 251 315 198 400 198 c 7
334 130 m 3
 245 130 102 165 102 284 c 3
 102 403.82069938 202 415.875484503 202 432 c 3
 202 434 128 436 128 538 c 3
 128 650 280 694 362 694 c 3
 412 694 552 694 552 614 c 27
 552 568 530.396078054 504 510 504 c 0
 501 504 521.1015625 630 344 630 c 3
 284 630 200 642.016126935 200 580 c 3
 200 505 268 484 330 484 c 27
 457 484 564 377.004424692 564 264 c 3
 564 21 320 -86 320 -86 c 18
 320 -86 471 27 476 208 c 0
 477.74317083 271.102784055 436.239913928 130 334 130 c 3
EndSplineSet
Validated: 33
EndChar

StartChar: NameMe.58
Encoding: 58 -1 87
Width: 1000
VWidth: 0
Flags: HW
LayerCount: 2
Back
Fore
SplineSet
374 -38 m 3
 236 -38 154 -31 154 10 c 3
 154 49 178 84 216 84 c 3
 254 84 266 38 442 27 c 0
 461 26 489 23 515 23 c 0
 557 23 596 31 596 68 c 3
 596 124 526 236 406 236 c 3
 385 236 364 236 344 236 c 0
 251 236 182 246 182 372 c 3
 182 434 180 532 180 532 c 26
 250 584 l 18
 251 585 252 585 253 585 c 0
 269 585 262 479 270 418 c 0
 283 325 310 309 345 309 c 0
 362 309 382 313 404 313 c 11
 452 313 478 296 526 296 c 3
 526 296 606 368 606 428 c 3
 606 538 558 514 558 536 c 3
 558 564 694 598 694 598 c 18
 694 598 694 596 694 593 c 0
 694 571 692 470 666 412 c 8
 638 350 552 304 552 288 c 3
 552 261 678 268 678 120 c 3
 678 -14 508 -38 374 -38 c 3
EndSplineSet
Validated: 1
EndChar

StartChar: ADLAM_SMALL_LETTER_QAAF
Encoding: 57 125241 88
Width: 1000
VWidth: 0
Flags: HO
LayerCount: 2
Back
Fore
SplineSet
424 274 m 3
 424 358 382 454 304 454 c 3
 254 454 204 422 204 372 c 3
 204 329 276 228 346 228 c 3
 355.75 228 364.5859375 227.7890625 372.5078125 227.7890625 c 0
 406.8359375 227.7890625 424 231.75 424 274 c 3
323 187 m 0
 216 187 148 234 148 322 c 0
 148 435 252 510 366 516 c 16
 367.555389112 516.074958511 369.093570715 516.111990268 370.614676426 516.111990268 c 0
 450.264110658 516.111990268 483.093698139 414.575788283 488 340 c 0
 488.120130732 338.258104393 488.175320196 336.411581189 488.175320196 334.480367407 c 0
 488.175320196 312.621299625 481.104679804 279.912033708 481.104679804 265.263632593 c 0
 481.104679804 260.541606317 481.839422202 257.696366637 483.782606876 257.696366637 c 0
 484.145282591 257.696366637 484.550053714 257.795478961 485 258 c 0
 549 287 593 336 636 373 c 0
 637.405891646 374.23015519 637.916167537 382.810536228 637.916167537 396.114319258 c 0
 637.916167537 431.348668972 634.336956843 499.714215377 634.336956843 552.412705617 c 0
 634.336956843 592.811477036 636.440382822 624.003052857 643.872216176 624.003052857 c 0
 643.914636979 624.003052857 643.957231387 624.002036601 644 624 c 10
 724 620 l 18
 724 620 716.398891967 440.288088643 716.398891967 261.290567138 c 0
 716.398891967 197.362880886 717.368421053 133.526315789 720 78 c 8
 721 64 750 56 750 56 c 26
 750 56 713 12 680 0 c 16
 678.118290967 -0.774821366489 676.114061904 -1.13307462892 674.034778378 -1.13307462892 c 0
 657.329106678 -1.13307462892 635.778622467 21.9923977995 634 38 c 0
 630.052631579 66.9473684211 628.59833795 98.5263157895 628.59833795 129.347135151 c 0
 628.59833795 215.645429363 640 296 640 296 c 2
 640.003508859 296.224566953 640.005257089 296.446942353 640.005257089 296.66713804 c 0
 640.005257089 309.972225233 633.62238141 315.319064219 623.591938252 315.319064219 c 0
 586.810053872 315.319064219 500.979069539 243.419739163 500.979069539 228.391622481 c 0
 500.979069539 228.256449288 500.986013642 228.125877225 501 228 c 0
 501.339068518 223.973561354 501.502093113 219.89862081 501.502093113 215.786598832 c 0
 501.502093113 123.274732963 418.986285177 11.9938923254 402.211458867 11.9938923254 c 0
 402.139767983 11.9938923254 402.069277837 11.9959248331 402 12 c 1
 397 0.888888888889 312.987654321 -1.58024691358 239.297668038 -1.58024691358 c 0
 180.345679012 -1.58024691358 128 0 128 0 c 2
 128 0 152 50 182 56 c 16
 202.161382484 59.7664121124 223.795345611 61.1276091735 245.542490958 61.1276091735 c 0
 302.250614023 61.1276091735 359.72833563 51.8719567987 393.872394386 51.8719567987 c 0
 405.735121878 51.8719567987 414.781271671 52.989195195 420 56 c 0
 427.680851064 60.4468085106 429.968764147 84.3408782254 429.968764147 111.23218362 c 0
 429.968764147 150.861475781 425 197 425 197 c 2
 425.037386474 197.859888905 425.055903344 198.684135225 425.055903344 199.473771033 c 0
 425.055903344 210.982378088 421.122581946 215.139080276 414.347970445 215.139080276 c 0
 396.721518987 215.139080276 359.860759494 187 323 187 c 0
EndSplineSet
Validated: 524289
EndChar
